<?xml version="1.0" encoding="UTF-8"?>
<svg version="1.1" xmlns="http://www.w3.org/2000/svg" width="1943" height="470">
<path d="M0 0 C1.14816326 0.02753459 2.29632653 0.05506918 3.47928262 0.08343816 C8.62833362 0.3185682 13.75559221 0.66042503 18.89103508 1.10094261 C20.02018054 1.19345318 21.149326 1.28596376 22.31268799 1.38127768 C26.05678467 1.68935964 29.80019719 2.00506121 33.54365349 2.32082176 C36.24345342 2.54520665 38.94338474 2.76799331 41.64330864 2.99088097 C48.19019739 3.53237059 54.73658664 4.07968132 61.28280501 4.62921022 C66.60360504 5.07578814 71.92456877 5.52036444 77.24565315 5.96354103 C78.00509506 6.02679689 78.76453698 6.09005276 79.54699228 6.15522546 C81.090067 6.28374766 82.63314193 6.41226719 84.17621709 6.54078408 C98.61391402 7.74351783 113.05103149 8.95309451 127.48797144 10.16487582 C140.68974145 11.27278189 153.89217384 12.37255744 167.09494601 13.46845071 C180.67068105 14.59536627 194.24597438 15.72746514 207.82079899 16.86529696 C215.43465258 17.50340111 223.04865993 18.13950808 230.66312599 18.77026558 C237.13941846 19.30680721 243.61527455 19.84829236 250.09062128 20.39613436 C253.39248422 20.67535351 256.69454934 20.95156776 259.99704742 21.22318649 C263.57874656 21.51815311 267.15961242 21.82175187 270.74040031 22.12755394 C271.78115365 22.21122007 272.82190698 22.2948862 273.8941983 22.38108766 C286.89972826 23.51587318 286.89972826 23.51587318 291.80976677 27.67873192 C298.40986642 35.63767561 294.51531407 50.01895908 293.72773552 59.65138817 C293.60037083 61.22979048 293.47303679 62.80819527 293.34573174 64.3866024 C293.07894741 67.67898298 292.80851548 70.97104255 292.53608513 74.26296043 C292.18949097 78.46026144 291.8571018 82.65855927 291.5280695 86.85726833 C291.27054102 90.11202957 291.00287406 93.36590128 290.73249054 96.61961746 C290.60562882 98.16651181 290.48243076 99.71371156 290.36313248 101.26120758 C288.82245402 121.12556936 288.82245402 121.12556936 283.55976677 126.80373192 C274.94555408 130.21971281 264.08225146 128.16238113 254.98522758 127.38152122 C253.85678769 127.28901065 252.72834779 127.19650008 251.56571275 127.10118616 C247.82394969 126.79310514 244.08287143 126.4774022 240.34174919 126.16164207 C237.643572 125.93725509 234.94526316 125.71446857 232.24696159 125.49158287 C225.70374875 124.95007995 219.16103488 124.40276521 212.61849024 123.85325362 C207.30008496 123.40664653 201.9815133 122.96207321 196.66281891 122.51892281 C195.52408913 122.42403901 195.52408913 122.42403901 194.3623547 122.32723837 C192.81984576 122.19871563 191.27733655 122.0701961 189.73482708 121.94167976 C175.3018716 120.73891104 160.86949038 119.52936248 146.43728862 118.31758802 C134.06428439 117.2788896 121.69076031 116.24657879 109.31684685 115.21877098 C94.92507527 114.02335478 80.53367741 112.82357817 66.14282304 111.61716688 C64.60776124 111.48849486 63.07269882 111.35983006 61.5376358 111.23117256 C60.78246602 111.16787945 60.02729623 111.10458634 59.24924251 111.03937525 C53.93708226 110.5944617 48.62466546 110.15269861 43.3121376 109.71219826 C36.83846179 109.17535152 30.36519743 108.63383042 23.89241364 108.08632948 C20.59243625 107.8073239 17.29226665 107.53113439 13.99169159 107.25927734 C10.41037804 106.96393279 6.82984373 106.66045049 3.24938774 106.3549099 C1.692627 106.2294107 1.692627 106.2294107 0.10441655 106.10137618 C-14.25865883 104.85072277 -14.25865883 104.85072277 -19.03495979 100.59547997 C-21.38212895 96.7176833 -21.74174326 93.9653287 -21.54960823 89.57326317 C-21.53178291 88.77451271 -21.5139576 87.97576225 -21.49559212 87.15280724 C-21.07891176 73.96826865 -19.86348878 60.79539307 -18.72148323 47.65749168 C-18.37694919 43.68599126 -18.05610564 39.71294033 -17.74066734 35.73903751 C-17.49162793 32.64870749 -17.22692742 29.55986437 -16.95783424 26.47122192 C-16.83265954 25.00575177 -16.71305152 23.53979427 -16.59932899 22.07339096 C-16.43934851 20.03207473 -16.25743792 17.99381957 -16.07011604 15.95485497 C-15.97240913 14.79970894 -15.87470222 13.64456291 -15.7740345 12.45441246 C-14.72493307 7.69856277 -12.74708467 4.47418967 -8.80370438 1.58331525 C-5.59916511 0.01281898 -3.55140061 -0.09230151 0 0 Z " fill="#107B76" transform="translate(21.06523323059082,129.75876808166504)"/>
<path d="M0 0 C1.12788185 -0.01475876 1.12788185 -0.01475876 2.27854919 -0.02981567 C18.85833562 -0.20196958 34.88279761 -0.1655713 50.99609375 4.23828125 C51.84413574 4.46370605 52.69217773 4.68913086 53.56591797 4.92138672 C72.31945082 10.08184887 90.91356456 18.85178594 105.99609375 31.23828125 C106.85332031 31.89699219 107.71054688 32.55570313 108.59375 33.234375 C129.00027062 49.23661059 148.04063963 71.11991298 155.99609375 96.23828125 C156.05501028 101.09153004 154.59582177 104.50015445 151.55859375 108.23828125 C148.12336359 110.9194365 145.65457114 111.36324958 141.42702007 111.36970901 C140.01283544 111.37547073 140.01283544 111.37547073 138.57008141 111.38134885 C137.53235662 111.38048237 136.49463182 111.37961588 135.42546082 111.37872314 C134.3245718 111.38169427 133.22368278 111.38466539 132.08943349 111.38772655 C128.38147346 111.39643394 124.67354563 111.39792351 120.96557617 111.39941406 C118.31480251 111.40404077 115.66403182 111.40904446 113.01325989 111.41445923 C105.79839042 111.42804537 98.58352651 111.43406768 91.36864638 111.43846989 C86.86441349 111.44123177 82.36018275 111.44546902 77.85595131 111.44997406 C65.38719791 111.46216698 52.91844624 111.47246632 40.449687 111.47584915 C39.6515467 111.47606872 38.8534064 111.47628828 38.03108003 111.4765145 C37.23102113 111.47673278 36.43096222 111.47695106 35.60665911 111.47717595 C33.98541272 111.47761942 32.36416632 111.47806598 30.74291992 111.47851562 C29.53662649 111.47884777 29.53662649 111.47884777 28.30596349 111.47918662 C15.27366444 111.48313506 2.24142129 111.50059035 -10.79085616 111.52387515 C-24.16806914 111.54758351 -37.54525406 111.56005076 -50.92248839 111.56121707 C-58.43446407 111.56213411 -65.9463669 111.56789369 -73.45832253 111.58603668 C-79.85466887 111.60143071 -86.25091986 111.60656228 -92.64728121 111.59829858 C-95.91083241 111.59438958 -99.17415123 111.59696302 -102.43768692 111.60935593 C-105.97606521 111.62200628 -109.51394799 111.61623585 -113.05232239 111.60577393 C-114.08335502 111.61383033 -115.11438765 111.62188673 -116.1766637 111.63018727 C-121.53397249 111.59304931 -125.40471984 111.30880714 -130.00390625 108.23828125 C-133.44135533 104.34853624 -134.39007084 101.5524151 -134.27148438 96.37670898 C-133.81554229 92.73291637 -132.29651256 89.81381713 -130.56640625 86.61328125 C-130.20804688 85.92669434 -129.8496875 85.24010742 -129.48046875 84.53271484 C-123.71835534 73.69884504 -117.02326783 63.54307784 -109.00390625 54.23828125 C-108.18277344 53.28308594 -107.36164063 52.32789063 -106.515625 51.34375 C-80.43260985 21.64422263 -39.96337229 0.43085497 0 0 Z " fill="#D74A33" transform="translate(147.00390625,-0.23828125)"/>
<path d="M0 0 C0.84841434 -0.00297112 1.69682867 -0.00594224 2.57095253 -0.0090034 C5.42443764 -0.01770084 8.27788085 -0.01919952 11.13137817 -0.02069092 C13.17294403 -0.0253183 15.21450902 -0.03034286 17.256073 -0.03573608 C22.80977263 -0.04886862 28.36346017 -0.05530656 33.91717291 -0.05974674 C37.38484835 -0.06267573 40.85252047 -0.06678017 44.32019424 -0.07125092 C55.16389987 -0.08492729 66.00759791 -0.0945936 76.85131156 -0.09845281 C89.37995136 -0.10293587 101.90848219 -0.12049474 114.43708885 -0.1494534 C124.11443204 -0.17104737 133.79174452 -0.18115584 143.46911156 -0.18249393 C149.25234737 -0.18354347 155.03548075 -0.18948323 160.81869125 -0.20731354 C166.25726187 -0.223755 171.69565264 -0.22596882 177.1342392 -0.21717453 C179.13171748 -0.21640208 181.12920529 -0.22077409 183.12665939 -0.23063278 C185.85093156 -0.24329162 188.5745609 -0.2375086 191.29882812 -0.22705078 C192.0915348 -0.23510719 192.88424148 -0.24316359 193.70096958 -0.25146413 C199.27001151 -0.2013733 202.36568551 1.07411716 206.52639771 4.64044189 C209.10595368 7.73590906 208.95277635 11.13809722 209.10452271 15.00762939 C208.25904353 20.50324401 204.22913519 23.83297816 200.27639771 27.39044189 C199.74667358 27.86860352 199.21694946 28.34676514 198.6711731 28.8394165 C194.39352798 32.66899405 189.96357912 36.29466173 185.49124146 39.89434814 C182.66966275 42.22874779 179.97049059 44.66034788 177.27639771 47.14044189 C172.82912659 51.23395281 168.22922307 55.06486688 163.52639771 58.85919189 C160.69540192 61.20763158 157.98256173 63.64954092 155.27639771 66.14044189 C150.82912659 70.23395281 146.22922307 74.06486688 141.52639771 77.85919189 C137.73734364 81.00238447 134.14370419 84.34202784 130.52249146 87.67559814 C126.99420104 90.84252738 123.313114 93.7940897 119.62014771 96.76544189 C115.89481358 99.87670996 112.34794577 103.1628386 108.8352356 106.5112915 C104.62229882 110.47103488 101.726796 112.4247036 95.90139771 112.51544189 C95.07897583 112.54380127 94.25655396 112.57216064 93.40921021 112.60137939 C87.73118859 111.60730439 83.66247213 107.28000652 79.58889771 103.45294189 C75.90827906 100.05123346 72.17957101 96.7841995 68.27639771 93.64044189 C63.52044352 89.80325158 59.0213497 85.74659089 54.52639771 81.60919189 C51.83902136 79.19666086 49.08674327 76.90787979 46.27639771 74.64044189 C41.52044352 70.80325158 37.0213497 66.74659089 32.52639771 62.60919189 C29.83902136 60.19666086 27.08674327 57.90787979 24.27639771 55.64044189 C19.51755847 51.80092388 15.01576796 47.7418451 10.51858521 43.60137939 C7.87623888 41.23004295 5.16945604 38.98791192 2.40139771 36.76544189 C-1.97217335 33.22613584 -6.19272646 29.55546346 -10.34860229 25.76544189 C-10.91756226 25.25320068 -11.48652222 24.74095947 -12.07272339 24.2131958 C-16.01751954 20.5773222 -17.12390701 18.68571874 -17.47360229 13.26544189 C-17.413235 8.56541685 -15.74816957 5.91910371 -12.72360229 2.39044189 C-9.06100582 -0.66172183 -4.49186088 -0.00488243 0 0 Z " fill="#AED6AA" transform="translate(62.223602294921875,276.85955810546875)"/>
<path d="M0 0 C0.80244141 -0.00773437 1.60488281 -0.01546875 2.43164062 -0.0234375 C10.45037919 0.00318072 10.45037919 0.00318072 12.9375 2.25 C14.02874339 4.80696173 14.91581026 7.23805667 15.75 9.875 C19.12425509 19.50626516 22.82051038 24.8513118 32.0625 29.6875 C40.65691994 33.78380145 48.31868946 34.24683779 57.3828125 31.28515625 C64.95311388 28.21767939 71.05070647 23.50080196 74.9375 16.25 C76.31147922 12.59409039 77.53519618 8.9654318 78.6640625 5.2265625 C79.9375 2.25 79.9375 2.25 81.59765625 0.85546875 C84.97971108 -0.01968734 88.28170739 -0.07851243 91.75 -0.0625 C92.77963867 -0.08666992 92.77963867 -0.08666992 93.83007812 -0.11132812 C98.79695703 -0.11602716 102.57497298 0.66616313 106.9375 3.25 C111.08775408 8.95834924 111.51918077 13.44508482 111.43359375 20.3828125 C111.43504898 21.33767548 111.43650421 22.29253845 111.43800354 23.27633667 C111.43635061 25.28500434 111.42485764 27.29368549 111.40405273 29.30224609 C111.37502253 32.37261751 111.38347191 35.44126814 111.39648438 38.51171875 C111.39024845 40.46875837 111.38185865 42.42579256 111.37109375 44.3828125 C111.37402939 45.29749298 111.37696503 46.21217346 111.37998962 47.15457153 C111.28765234 53.40014931 110.30385565 56.67134393 106.00949097 61.35098267 C101.43483506 64.17890468 97.27988915 63.80873896 92.00024414 63.76757812 C90.89724472 63.7745874 89.7942453 63.78159668 88.65782166 63.78881836 C85.01251025 63.80642015 81.36797553 63.79476625 77.72265625 63.78125 C75.18826651 63.78394446 72.65387778 63.78782649 70.11949158 63.79284668 C64.80749721 63.7987449 59.49578087 63.79055078 54.18383789 63.77148438 C48.05170929 63.74972752 41.92011295 63.75675994 35.78799731 63.77879 C29.87889323 63.79916542 23.96995379 63.79696226 18.06081963 63.78526306 C15.55100874 63.78259544 13.04118426 63.78586673 10.53138924 63.79518127 C7.02194445 63.80534641 3.5135193 63.78984389 0.00415039 63.76757812 C-1.03240692 63.77567505 -2.06896423 63.78377197 -3.13693237 63.79211426 C-9.08600044 63.72223423 -12.55033488 63.24632661 -17.0625 59.25 C-19.17820924 56.07643614 -19.32209571 55.24027749 -19.36889648 51.59838867 C-19.38488388 50.65698532 -19.40087128 49.71558197 -19.41734314 48.74565125 C-19.42270584 47.73001602 -19.42806854 46.7143808 -19.43359375 45.66796875 C-19.44262222 44.62103348 -19.4516507 43.57409821 -19.46095276 42.49543762 C-19.47546764 40.27880721 -19.48434506 38.06213384 -19.48803711 35.84545898 C-19.49991861 32.46068672 -19.54908143 29.07774597 -19.59960938 25.69335938 C-19.60907527 23.53907139 -19.61630951 21.38477222 -19.62109375 19.23046875 C-19.64062607 18.22090622 -19.66015839 17.21134369 -19.68028259 16.17118835 C-19.651063 11.59978627 -19.61673401 8.29513413 -16.66796875 4.64868164 C-11.46944643 -0.13725181 -6.75168384 -0.06539161 0 0 Z " fill="#107B76" transform="translate(112.0625,406.75)"/>
<path d="M0 0 C0.88514786 -0.00953201 1.77029572 -0.01906403 2.68226624 -0.02888489 C4.1088279 -0.02751778 4.1088279 -0.02751778 5.56420898 -0.02612305 C6.55347885 -0.03040817 7.54274872 -0.0346933 8.56199646 -0.03910828 C10.65753414 -0.04485015 12.75309175 -0.04535289 14.84863281 -0.04101562 C18.02436325 -0.03787731 21.19914204 -0.06124131 24.37475586 -0.08666992 C26.4170724 -0.08894537 28.45939143 -0.08964527 30.50170898 -0.08862305 C31.43858047 -0.09783279 32.37545197 -0.10704254 33.3407135 -0.11653137 C42.14539228 -0.05607975 51.5440262 1.05541317 58.06030273 7.5090332 C63.68777424 14.42103624 64.25540692 21.86455971 63.88452148 30.5168457 C63.11422218 38.00197635 60.00301954 42.38113216 54.49780273 47.2746582 C55.02889648 47.64977539 55.55999023 48.02489258 56.10717773 48.41137695 C63.32267865 53.63866502 67.64457143 58.39794884 69.49780273 67.2746582 C70.46676129 76.8725855 69.59756145 86.8384564 63.49780273 94.6496582 C58.1183056 100.23561791 49.92185725 103.93432938 42.15223694 104.42182922 C41.28795578 104.43167343 40.42367462 104.44151764 39.53320312 104.45166016 C38.54860611 104.46449539 37.56400909 104.47733063 36.54957581 104.49055481 C34.96353798 104.50163521 34.96353798 104.50163521 33.34545898 104.51293945 C32.2531749 104.5210112 31.16089081 104.52908295 30.0355072 104.53739929 C27.72648701 104.55122008 25.41744657 104.56195119 23.10839844 104.56982422 C19.57700136 104.58707662 16.04653108 104.63098638 12.51538086 104.67504883 C10.27124711 104.68517274 8.02710542 104.69368978 5.78295898 104.70043945 C4.1999575 104.72670158 4.1999575 104.72670158 2.5849762 104.75349426 C-4.72090182 104.73185533 -4.72090182 104.73185533 -8.64501953 102.43554688 C-12.16362493 98.34153132 -11.65628298 93.9783306 -11.66333008 88.859375 C-11.66829498 88.0005069 -11.67325989 87.14163879 -11.67837524 86.25674438 C-11.69299252 83.41244712 -11.69979832 80.56820563 -11.70532227 77.72387695 C-11.71107428 75.74713642 -11.71683201 73.7703959 -11.72259521 71.7936554 C-11.73310411 67.64677673 -11.73894744 63.49991745 -11.74243164 59.35302734 C-11.74791469 54.04340156 -11.77193922 48.73403243 -11.80040359 43.42448711 C-11.8190423 39.3400854 -11.82423625 35.25574535 -11.82576752 31.1713047 C-11.82879202 29.2141155 -11.83681372 27.25692733 -11.8499527 25.29977989 C-11.86703809 22.55903061 -11.8651268 19.81890616 -11.85864258 17.078125 C-11.86785736 16.27219406 -11.87707214 15.46626312 -11.88656616 14.63591003 C-11.85087866 9.81209539 -11.27151769 6.40171067 -8.50219727 2.2746582 C-5.70834035 0.28443298 -3.38188827 0.02010217 0 0 Z M8.49780273 19.2746582 C8.49780273 26.5346582 8.49780273 33.7946582 8.49780273 41.2746582 C12.70652421 41.35571061 16.91367904 41.41519136 21.12280273 41.4621582 C22.31260742 41.48729492 23.50241211 41.51243164 24.72827148 41.53833008 C31.79258939 41.59752827 36.82965678 41.45371803 42.37280273 36.6496582 C44.14401283 32.91043688 44.16995966 29.32928224 43.49780273 25.2746582 C41.70386606 22.40435952 40.51516997 20.78334182 37.49780273 19.2746582 C35.31955312 19.18906702 33.13865019 19.16752408 30.95874023 19.17700195 C29.00581055 19.18183594 29.00581055 19.18183594 27.01342773 19.18676758 C25.63321875 19.19512354 24.25301041 19.2035885 22.87280273 19.2121582 C21.48478348 19.21717319 20.09676251 19.2217361 18.70874023 19.22583008 C15.305076 19.23764836 11.90143404 19.2555843 8.49780273 19.2746582 Z M8.49780273 59.2746582 C8.49780273 68.1846582 8.49780273 77.0946582 8.49780273 86.2746582 C12.94628116 86.3668016 17.39141327 86.44633254 21.84008789 86.49438477 C23.35127009 86.51442611 24.86237546 86.54166725 26.37329102 86.57641602 C28.55300916 86.62526929 30.73169704 86.64770044 32.91186523 86.6652832 C34.22106934 86.68623047 35.53027344 86.70717773 36.87915039 86.72875977 C41.122244 86.19629761 43.21655929 84.97059222 46.49780273 82.2746582 C49.40019274 77.49975852 49.92639475 73.74934653 49.07202148 68.35668945 C48.21022631 65.23194914 46.87237092 63.45134571 44.49780273 61.2746582 C40.34971928 59.1559163 36.84779631 59.04132492 32.22827148 59.0793457 C31.54726883 59.0821756 30.86626617 59.08500549 30.16462708 59.08792114 C28.00466819 59.09905295 25.8451348 59.12414364 23.68530273 59.1496582 C22.21460563 59.15969709 20.74390198 59.16882135 19.27319336 59.17700195 C15.68110349 59.19726191 12.08992542 59.23642153 8.49780273 59.2746582 Z " fill="#107B76" transform="translate(933.502197265625,109.725341796875)"/>
<path d="M0 0 C1.32749519 -0.01395813 1.32749519 -0.01395813 2.68180847 -0.02819824 C3.62252701 -0.01180298 4.56324554 0.00459229 5.5324707 0.02148438 C7.01213066 0.02142395 7.01213066 0.02142395 8.52168274 0.0213623 C10.60534037 0.02671127 12.68899791 0.04426719 14.77246094 0.07324219 C17.93073628 0.11487169 21.08685938 0.11432409 24.24536133 0.10742188 C26.27857902 0.11792402 28.31178586 0.13086761 30.3449707 0.14648438 C31.27556808 0.14668579 32.20616547 0.14688721 33.16496277 0.14709473 C42.78372818 0.31701003 51.63007074 1.79814165 58.6809082 8.74804688 C64.01332956 15.01069407 64.42555825 22.63303472 64.27075195 30.61523438 C63.04472438 37.98234648 59.45080687 42.43517946 54.27075195 47.61523438 C55.11637695 48.11023438 55.96200195 48.60523438 56.83325195 49.11523438 C61.9981759 52.58714287 66.10517452 57.08137039 68.70825195 62.74023438 C70.18834726 72.93644651 70.6442989 83.95078189 64.79418945 92.86523438 C59.40256733 99.56167829 52.6393494 102.92508253 44.27075195 104.61523438 C40.45618235 104.93267697 36.65188468 104.96663278 32.82543945 104.98632812 C31.73740021 104.9953566 30.64936096 105.00438507 29.52835083 105.01368713 C27.23727148 105.02814497 24.94615126 105.03706521 22.6550293 105.04077148 C19.14993475 105.05272012 15.64657206 105.10199554 12.1418457 105.15234375 C9.91138551 105.16180291 7.68091456 105.16904037 5.45043945 105.17382812 C4.4045163 105.19336044 3.35859314 105.21289276 2.28097534 105.23301697 C1.30290924 105.22693924 0.32484314 105.22086151 -0.68286133 105.21459961 C-1.53888947 105.21967026 -2.3949176 105.22474091 -3.27688599 105.22996521 C-7.04291129 104.28593989 -8.44442617 102.72768848 -10.72924805 99.61523438 C-11.44650926 96.57130244 -11.42332505 93.61472488 -11.39208984 90.49804688 C-11.40245773 89.58851257 -11.41282562 88.67897827 -11.42350769 87.74188232 C-11.45057174 84.74087163 -11.44091787 81.74132285 -11.4284668 78.74023438 C-11.43437548 76.65185132 -11.4416221 74.56347166 -11.45014954 72.47509766 C-11.46202898 68.10040628 -11.45532285 63.72622371 -11.43603516 59.3515625 C-11.41314292 53.7455084 -11.43993235 48.14096937 -11.48109722 42.5350647 C-11.50667155 38.22328388 -11.50409639 33.91186578 -11.49320412 29.60003662 C-11.49171713 27.53316878 -11.49941088 25.46627319 -11.5164547 23.3994751 C-11.53641876 20.50952219 -11.51804795 17.62225108 -11.48974609 14.73242188 C-11.50346252 13.87928406 -11.51717896 13.02614624 -11.53131104 12.14715576 C-11.42180664 6.5524186 -11.42180664 6.5524186 -9.50907612 3.96407318 C-6.54235311 1.29090852 -3.96577334 -0.01057173 0 0 Z M9.27075195 19.61523438 C9.27075195 26.87523437 9.27075195 34.13523438 9.27075195 41.61523438 C13.31282334 41.69631604 17.35326103 41.75578066 21.39575195 41.80273438 C22.53786133 41.82787109 23.6799707 41.85300781 24.85668945 41.87890625 C31.79190619 41.93938779 36.70493421 41.70560975 42.14575195 36.99023438 C43.91696205 33.25101305 43.94290888 29.66985842 43.27075195 25.61523438 C41.47681527 22.74493569 40.28811919 21.12391799 37.27075195 19.61523438 C35.16546262 19.52979542 33.05744038 19.50808713 30.95043945 19.51757812 C29.06518555 19.52241211 29.06518555 19.52241211 27.1418457 19.52734375 C25.82313477 19.53572266 24.50442383 19.54410156 23.14575195 19.55273438 C21.80590984 19.55774948 20.46606595 19.56231237 19.1262207 19.56640625 C15.84104539 19.57822343 12.55589314 19.59615936 9.27075195 19.61523438 Z M9.27075195 59.61523438 C9.27075195 68.52523437 9.27075195 77.43523437 9.27075195 86.61523438 C13.57685089 86.7073982 17.87948915 86.78692098 22.18579102 86.83496094 C23.64847447 86.8549977 25.11107861 86.88223541 26.57348633 86.91699219 C28.68371205 86.96586663 30.79287331 86.98828097 32.90356445 87.00585938 C34.17087402 87.02680664 35.43818359 87.04775391 36.74389648 87.06933594 C40.91851836 86.53183097 43.02155059 85.24158754 46.27075195 82.61523438 C49.37887813 78.05664931 50.03051352 73.97636882 49.27075195 68.61523438 C47.91682299 64.39416174 47.06118297 63.02680426 43.10253906 60.96557617 C39.36325438 59.46958487 36.06553735 59.27023714 32.0246582 59.32226562 C31.04069313 59.32863289 31.04069313 59.32863289 30.03684998 59.33512878 C27.96854285 59.35174659 25.90125795 59.38936199 23.83325195 59.42773438 C22.4198547 59.44280327 21.00644197 59.45648779 19.59301758 59.46875 C16.15156432 59.49902671 12.71228433 59.55776908 9.27075195 59.61523438 Z " fill="#107B76" transform="translate(441.729248046875,109.384765625)"/>
<path d="M0 0 C1.15214876 0.76136146 2.30050618 1.52868682 3.4375 2.3125 C4.035625 1.36375 4.63375 0.415 5.25 -0.5625 C7.4375 -3.6875 7.4375 -3.6875 10.4375 -5.6875 C14.64928243 -6.15547583 16.72349114 -6.15315795 20.3125 -3.8125 C23.94824214 -0.17675786 23.57239104 2.30150702 23.59863281 7.35742188 C23.60608017 8.44567261 23.60608017 8.44567261 23.61367798 9.5559082 C23.62832031 11.96436506 23.63510808 14.37275587 23.640625 16.78125 C23.64637858 18.45837404 23.65213628 20.13549806 23.65789795 21.81262207 C23.66841643 25.33667304 23.67425228 28.86070116 23.67773438 32.38476562 C23.68319453 36.87907854 23.70716536 41.37308471 23.73570633 45.86730194 C23.75443209 49.3368006 23.75954376 52.8062272 23.76107025 56.27577209 C23.76407934 57.93101157 23.77204829 59.5862503 23.78525543 61.24143982 C23.87969818 73.99724726 23.15388614 85.26551509 14.4375 95.3125 C6.83268867 102.60856899 -5.23800086 105.34820054 -15.5625 105.75 C-26.1657304 105.22882427 -38.32570303 103.60432773 -46.625 96.5625 C-48.10204137 93.0176007 -47.63466466 89.9459469 -46.5625 86.3125 C-45 83.8125 -45 83.8125 -42.5625 82.3125 C-36.36324086 81.44242854 -31.97555333 83.12559343 -26.21875 85.34765625 C-17.94059337 88.35457491 -9.66041464 87.4366311 -1.5625 84.0625 C1.61491576 81.28226121 3.26423055 78.40303354 3.6171875 74.14453125 C3.62407218 72.19961053 3.53796568 70.25483639 3.4375 68.3125 C2.8084375 68.79460937 2.179375 69.27671875 1.53125 69.7734375 C-6.45279494 75.66527789 -13.51442068 78.52811756 -23.5625 77.3125 C-34.27621236 75.08990377 -42.41417801 71.04657834 -48.875 62.0625 C-56.05555958 50.2544687 -57.97359952 37.62498766 -55.28515625 24.09375 C-52.69547713 14.12698494 -47.33961557 5.55215712 -38.81640625 -0.3671875 C-26.00597068 -7.87139412 -12.55360173 -7.73882279 0 0 Z M-30.25 15.875 C-35.48182498 21.38962633 -38.29107091 28.22719616 -38.6953125 35.80078125 C-38.31444428 43.0036714 -35.80557568 50.21845231 -30.5625 55.3125 C-25.47886317 58.82288501 -19.80144236 60.84959796 -13.55859375 60.05859375 C-6.50392538 58.57269586 -1.55859177 55.16770198 2.40234375 49.15625 C5.68234742 43.31413025 6.24890284 36.8638266 5.4375 30.3125 C3.37747342 23.38635656 -0.2062991 17.57598433 -6.25 13.5 C-15.3352514 10.24302308 -22.04902182 11.10698943 -30.25 15.875 Z " fill="#107B76" transform="translate(1167.5625,138.6875)"/>
<path d="M0 0 C3.97377019 3.15161084 6.89311053 6.36891444 9 11 C9.40089844 10.48050781 9.80179688 9.96101562 10.21484375 9.42578125 C15.23016259 3.27320191 20.99776141 -1.51921192 29 -3 C38.07100254 -3.6738459 44.63954904 -2.85106409 52.25 2.125 C63.09146011 13.45925375 61.32674968 32.11659493 61.26074219 46.72583008 C61.24989997 49.58891395 61.26075936 52.45138674 61.2734375 55.31445312 C61.27211779 57.14843887 61.26955932 58.98242425 61.265625 60.81640625 C61.26967346 61.66537979 61.27372192 62.51435333 61.27789307 63.38905334 C61.23712346 68.5322429 60.85948101 72.54935451 57.6484375 76.78125 C55.5425037 78.33824371 54.22991968 78.46443796 51.625 78.5 C50.87476563 78.5309375 50.12453125 78.561875 49.3515625 78.59375 C45.64080164 77.6568137 44.32393485 76.02927945 42 73 C41.28030044 69.51600098 41.3498463 66.09377604 41.3984375 62.546875 C41.39043121 61.53208069 41.38242493 60.51728638 41.37417603 59.47174072 C41.35111991 56.23075391 41.3605548 52.99102032 41.375 49.75 C41.37886003 46.52349542 41.37528246 43.29754894 41.35440063 40.07110596 C41.34241043 38.06654122 41.34481544 36.06181979 41.36410522 34.05731201 C41.34054645 28.10167914 40.89046712 22.33442032 38 17 C32.61508825 14.14269989 26.82667129 14.83070202 21 16 C16.40462812 17.69828961 14.88612321 20.40091363 12.84469604 24.62734985 C11.31858143 28.91402326 11.49781741 33.16444593 11.56640625 37.66796875 C11.55680742 39.71549558 11.54703671 41.76302161 11.53710938 43.81054688 C11.54572952 47.01009781 11.56265138 50.20944973 11.5847168 53.40893555 C11.59922152 56.51651236 11.58400453 59.62293332 11.56640625 62.73046875 C11.59112755 64.16340523 11.59112755 64.16340523 11.61634827 65.62528992 C11.58133073 70.27926955 11.52598205 72.32188497 8.59350586 76.10253906 C5.34206228 78.48136044 3.81172676 78.6823685 -0.06640625 78.42578125 C-3.18118856 77.73989989 -4.87562521 76.31749977 -7 74 C-7.96277654 71.11613184 -8.13283551 68.44505674 -8.15771484 65.41845703 C-8.16797699 64.51717072 -8.17823914 63.6158844 -8.18881226 62.68728638 C-8.19611359 61.72056 -8.20341492 60.75383362 -8.2109375 59.7578125 C-8.23900326 57.70181492 -8.2676677 55.64582543 -8.296875 53.58984375 C-8.33813559 50.35530806 -8.37503318 47.12092411 -8.40136719 43.88623047 C-8.42901384 40.75977552 -8.47488061 37.63400335 -8.5234375 34.5078125 C-8.52669037 33.54513458 -8.52994324 32.58245667 -8.53329468 31.59060669 C-8.62925271 26.33356499 -9.00960566 22.52007195 -12 18 C-15.66891018 15.22594596 -18.5320344 14.79375019 -23 15.0625 C-27.53836006 15.70401255 -30.53413214 16.87226559 -34 20 C-37.48865793 25.34291922 -37.42610514 30.09169852 -37.40625 36.25390625 C-37.41708618 37.23238022 -37.42792236 38.21085419 -37.43908691 39.21897888 C-37.48481836 43.38804471 -37.49643099 47.55704666 -37.51123047 51.72631836 C-37.52693197 54.77740556 -37.55992917 57.8279748 -37.59375 60.87890625 C-37.59072876 61.81859756 -37.58770752 62.75828888 -37.58459473 63.72645569 C-37.65573446 69.92634759 -38.49337751 73.49337751 -43 78 C-46.03704568 78.50421994 -48.95802594 78.45467228 -52 78 C-54.50160818 76.12379387 -55.61945652 74.76108697 -57 72 C-57.11743364 69.87230405 -57.16981404 67.74091691 -57.19287109 65.61010742 C-57.20104858 64.95460403 -57.20922607 64.29910065 -57.21765137 63.62373352 C-57.24249562 61.45098789 -57.25901911 59.27830756 -57.2734375 57.10546875 C-57.27876118 56.36332941 -57.28408485 55.62119007 -57.28956985 54.85656166 C-57.31629782 50.92806659 -57.33567339 46.99960325 -57.35009766 43.07104492 C-57.36674106 39.01543293 -57.41151587 34.96063429 -57.4624691 30.9053297 C-57.49614364 27.78517231 -57.5076752 24.6652079 -57.51332474 21.54488564 C-57.52003724 20.05014139 -57.5352596 18.55540985 -57.55921555 17.06084251 C-57.59087728 14.96591531 -57.59090431 12.87318032 -57.58349609 10.77807617 C-57.59158295 9.58719894 -57.5996698 8.39632172 -57.60800171 7.1693573 C-56.8221871 3.07310686 -55.19350775 1.59035107 -52 -1 C-48.91100388 -1.83866505 -46.12775397 -1.63843667 -43 -1 C-39.88682467 1.23510024 -38.64052052 3.61953347 -37 7 C-36.5153125 6.52949219 -36.030625 6.05898437 -35.53125 5.57421875 C-25.73014939 -3.52949585 -12.40843757 -6.79849261 0 0 Z " fill="#107B76" transform="translate(801,136)"/>
<path d="M0 0 C3.9750877 3.51197068 7.22199078 7.60093448 10.5 11.75 C11.01699463 12.39976807 11.53398926 13.04953613 12.06665039 13.71899414 C16.47516903 19.28280301 20.77335525 24.92845105 25.06567383 30.58203125 C29.36721211 36.22591628 33.81099191 41.74085932 38.30932617 47.22851562 C42.71039017 52.60826834 46.96427989 58.08933061 51.171875 63.62109375 C52.79004354 65.83331403 52.79004354 65.83331403 54 67 C54.00364563 66.23436234 54.00729126 65.46872467 54.01104736 64.67988586 C54.04895378 57.45553286 54.10583561 50.23169404 54.18390274 43.00767231 C54.22337002 39.29391556 54.2555618 35.58039564 54.27099609 31.86645508 C54.2861682 28.28054651 54.32062195 24.69528904 54.36830902 21.10967064 C54.38311741 19.74343725 54.39104071 18.37711089 54.39188385 17.0107975 C54.39425649 15.09343204 54.42363754 13.17615811 54.45410156 11.2590332 C54.46742523 9.62355278 54.46742523 9.62355278 54.48101807 7.95503235 C55.12574644 4.28401207 56.3776247 2.61105393 59 0 C63.00803597 -1.1659741 65.05282711 -1.43240501 68.875 0.3125 C71 2 71 2 72 4 C72.11955334 6.93287358 72.17840419 9.84270337 72.19287109 12.77661133 C72.20513733 14.14025566 72.20513733 14.14025566 72.21765137 15.53144836 C72.24252079 18.54830257 72.25902482 21.5651097 72.2734375 24.58203125 C72.27876118 25.61101721 72.28408485 26.64000317 72.28956985 27.70017052 C72.31630741 33.14589061 72.3356809 38.59158773 72.35009766 44.03735352 C72.36675237 49.66674869 72.41153559 55.2955592 72.4624691 60.92473316 C72.49609742 65.24928981 72.50767024 69.5737069 72.51332474 73.89838219 C72.52004878 75.97365477 72.53530062 78.04891781 72.55921555 80.12406349 C72.59077669 83.0282645 72.59091745 85.93087814 72.58349609 88.83520508 C72.59990143 89.69305603 72.61630676 90.55090698 72.63320923 91.43475342 C72.58742354 95.81003083 72.41034094 97.48040029 69.60610962 101.03129578 C66.92414815 103.05729992 65.80304005 103.68315211 62.5 103.625 C61.40171875 103.64433594 61.40171875 103.64433594 60.28125 103.6640625 C54.90880268 102.10016516 51.32134235 96.17152466 47.8125 92 C47.33619141 91.43531006 46.85988281 90.87062012 46.36914062 90.28881836 C42.27902829 85.4030302 38.38306079 80.38393585 34.52734375 75.3125 C31.90791843 71.8676642 29.24020248 68.46214134 26.5625 65.0625 C26.1077832 64.48483887 25.65306641 63.90717773 25.18457031 63.31201172 C24.25948214 62.1372085 23.33418801 60.96256743 22.40869141 59.78808594 C20.02020883 56.75632746 17.63506589 53.72194656 15.25 50.6875 C14.82662354 50.14939697 14.40324707 49.61129395 13.96704102 49.05688477 C11.41198224 45.80692107 8.86852921 42.54813978 6.33105469 39.28442383 C5.70575867 38.48023514 5.08046265 37.67604645 4.43621826 36.8474884 C3.96226624 36.23781723 3.48831421 35.62814606 3 35 C2.99635437 35.79291443 2.99270874 36.58582886 2.98895264 37.402771 C2.95107592 44.87760144 2.89422776 52.35193329 2.81609726 59.82644272 C2.77659821 63.66914318 2.74442198 67.51161367 2.72900391 71.35449219 C2.71385278 75.06358015 2.6794362 78.77203599 2.63169098 82.48084259 C2.61686096 83.89535272 2.60895805 85.30995309 2.60811615 86.72454071 C2.60575002 88.70676704 2.57640694 90.68890549 2.54589844 92.67089844 C2.53701599 93.79896912 2.52813354 94.92703979 2.51898193 96.08929443 C1.88716111 99.63285589 0.80481797 100.81453426 -2 103 C-4.21875 103.56640625 -4.21875 103.56640625 -6.5 103.5625 C-7.2528125 103.58441406 -8.005625 103.60632813 -8.78125 103.62890625 C-12.20166386 102.65938753 -13.12803547 100.99009921 -15 98 C-15.57972753 94.98963371 -15.54692616 92.03299171 -15.51757812 88.97460938 C-15.5245874 88.07482864 -15.53159668 87.17504791 -15.53881836 86.2480011 C-15.55639511 83.27960164 -15.54477664 80.31215883 -15.53125 77.34375 C-15.533945 75.27778948 -15.53782749 73.2118302 -15.54284668 71.14587402 C-15.5487413 66.81831778 -15.54017976 62.49109202 -15.52148438 58.16357422 C-15.49869505 52.61834151 -15.5118183 47.0738832 -15.53577423 41.52867889 C-15.55023305 37.26326673 -15.54562578 32.99803795 -15.53526306 28.73262024 C-15.53259602 26.68809416 -15.53586473 24.64355139 -15.54518127 22.5990448 C-15.55534807 19.74071187 -15.53984377 16.88363042 -15.51757812 14.02539062 C-15.52567505 13.18160355 -15.53377197 12.33781647 -15.54211426 11.46846008 C-15.48477811 7.49247958 -15.28348477 5.46123251 -13.15515137 1.99841309 C-9.31729921 -1.56032255 -4.81929543 -1.6770442 0 0 Z " fill="#107B76" transform="translate(1413,111)"/>
<path d="M0 0 C2.50160818 1.87620613 3.61945652 3.23891303 5 6 C5.10290607 7.47945386 5.14585761 8.96330802 5.15771484 10.44628906 C5.16797699 11.36774719 5.17823914 12.28920532 5.18881226 13.23858643 C5.19611359 14.23750916 5.20341492 15.23643188 5.2109375 16.265625 C5.23901241 18.3737056 5.26767692 20.48177841 5.296875 22.58984375 C5.33810021 25.91877982 5.37498075 29.24757155 5.40136719 32.57666016 C5.42901976 35.78578891 5.4749 38.99425317 5.5234375 42.203125 C5.52669037 43.19395081 5.52994324 44.18477661 5.53329468 45.20562744 C5.62781329 50.53486819 5.97103393 54.41477522 9 59 C12.75247859 62.02282997 16.21677427 62.84055914 21 63 C26.00753571 62.12728227 29.16363878 60.98272444 32.5 57.0625 C34.45494271 53.07115863 35.1220028 49.91670977 35.1418457 45.49438477 C35.14888016 44.60989151 35.15591461 43.72539825 35.16316223 42.81410217 C35.16732651 41.86611252 35.17149078 40.91812286 35.17578125 39.94140625 C35.19897289 37.92642177 35.22308996 35.91144776 35.24804688 33.89648438 C35.28319612 30.72543243 35.31253266 27.55476826 35.32592773 24.38354492 C35.3413991 21.31902479 35.38159396 18.25562926 35.42578125 15.19140625 C35.42387283 14.24544083 35.42196442 13.2994754 35.41999817 12.32484436 C35.49947524 8.04689069 35.62103161 5.62324704 37.88354492 1.90234375 C40.43283993 -0.38905165 41.60974212 -0.65035729 45 -0.5625 C45.845625 -0.56378906 46.69125 -0.56507813 47.5625 -0.56640625 C50.8710333 0.20240357 51.9257921 1.31311558 54 4 C54.39509026 6.6494239 54.54789324 8.88429436 54.51757812 11.53149414 C54.5245874 12.2849411 54.53159668 13.03838806 54.53881836 13.81466675 C54.55641766 16.30520546 54.54476124 18.79460593 54.53125 21.28515625 C54.53394635 23.02428911 54.53782996 24.7634205 54.54284668 26.50254822 C54.54874598 30.1518282 54.54017241 33.80071672 54.52148438 37.44995117 C54.49881296 42.10123573 54.51173939 46.75159096 54.53577423 51.40284061 C54.55032241 54.99853843 54.5455832 58.59402109 54.53526306 62.18972588 C54.5326144 63.9027359 54.53579925 65.61576614 54.54518127 67.32875252 C54.59254067 78.41642998 54.04771635 87.69032451 47.875 97.3125 C38.36221923 106.20488202 26.6879058 109.64219141 13.765625 109.2265625 C6.51039476 108.63220748 -0.74838809 108.00744353 -7 104 C-7.61875 103.608125 -8.2375 103.21625 -8.875 102.8125 C-10.79511135 99.71898727 -10.60134328 96.4661697 -10 93 C-8.13013882 89.61986633 -6.93097564 88.34640954 -3.3125 87 C-0.18960641 87 1.1343236 87.33625213 3.9375 88.4375 C11.12439052 91.08980484 20.31184171 91.68626229 27.33203125 88.4765625 C28.21246094 87.98929687 29.09289063 87.50203125 30 87 C30.66 87 31.32 87 32 87 C32.50512244 85.39743892 33.00391627 83.79288208 33.5 82.1875 C33.7784375 81.29417969 34.056875 80.40085937 34.34375 79.48046875 C35.12788351 76.94426605 35.12788351 76.94426605 35 74 C34.52691406 74.33773437 34.05382813 74.67546875 33.56640625 75.0234375 C25.0758266 80.75002728 15.76103262 82.41812888 5.6484375 80.5703125 C-1.15048553 78.67782877 -6.75847849 74.84168283 -10.3515625 68.68359375 C-12.77030362 63.40238562 -14.11693517 58.67628071 -14.16113281 52.85180664 C-14.17074036 51.82716812 -14.1803479 50.8025296 -14.19024658 49.74684143 C-14.19449646 48.64573532 -14.19874634 47.54462921 -14.203125 46.41015625 C-14.20882507 45.27348007 -14.21452515 44.13680389 -14.22039795 42.96568298 C-14.22983986 40.56249928 -14.23637872 38.15930267 -14.24023438 35.75610352 C-14.2499537 32.08001197 -14.28099106 28.40447632 -14.3125 24.72851562 C-14.31902893 22.39323249 -14.32427983 20.05794535 -14.328125 17.72265625 C-14.3404718 16.62357437 -14.3528186 15.52449249 -14.36553955 14.3921051 C-14.36253845 13.36431442 -14.35953735 12.33652374 -14.35644531 11.27758789 C-14.36009094 10.37698135 -14.36373657 9.47637482 -14.36749268 8.54847717 C-13.91805571 5.43173516 -12.82604953 3.54375396 -11 1 C-7.55258453 -0.72370774 -3.76964661 -0.50306672 0 0 Z " fill="#107B76" transform="translate(1889,135)"/>
<path d="M0 0 C2.3181362 1.89111111 3.66914015 3.33828031 5 6 C5.15608023 8.40560273 5.25804458 10.78702772 5.31640625 13.1953125 C5.33718735 13.90275604 5.35796844 14.61019958 5.37937927 15.33908081 C5.44481078 17.60095425 5.50372974 19.86294462 5.5625 22.125 C5.60569133 23.65756422 5.64930582 25.19011657 5.69335938 26.72265625 C5.80048555 30.48165073 5.9017709 34.24076292 6 38 C6.53399414 37.51716553 7.06798828 37.03433105 7.61816406 36.53686523 C8.32682617 35.90466064 9.03548828 35.27245605 9.765625 34.62109375 C10.46461914 33.99388428 11.16361328 33.3666748 11.88378906 32.72045898 C18.40326899 27.42018498 25.88059426 27.22010971 34 28 C40.03976177 29.17338745 44.09117235 31.08604523 48 36 C53.89333571 44.75581306 54.31951953 53.73674421 54.37109375 64.078125 C54.38012222 65.20772644 54.3891507 66.33732788 54.39845276 67.50115967 C54.41288648 69.87444431 54.42182475 72.24776812 54.42553711 74.62109375 C54.4375108 78.25327486 54.48683084 81.88379766 54.53710938 85.515625 C54.54656613 87.82811675 54.55380473 90.14061887 54.55859375 92.453125 C54.57812607 93.53652161 54.59765839 94.61991821 54.61778259 95.73614502 C54.57268636 103.24251987 54.57268636 103.24251987 51.59399414 107.18237305 C48.33891501 109.46322614 46.76846391 109.67950612 42.93359375 109.42578125 C39.81881144 108.73989989 38.12437479 107.31749977 36 105 C35.03722346 102.11613184 34.86716449 99.44505674 34.84228516 96.41845703 C34.83202301 95.51717072 34.82176086 94.6158844 34.81118774 93.68728638 C34.80388641 92.72056 34.79658508 91.75383362 34.7890625 90.7578125 C34.76099674 88.70181492 34.7323323 86.64582543 34.703125 84.58984375 C34.66186441 81.35530806 34.62496682 78.12092411 34.59863281 74.88623047 C34.57098616 71.75977552 34.52511939 68.63400335 34.4765625 65.5078125 C34.47330963 64.54513458 34.47005676 63.58245667 34.46670532 62.59060669 C34.37074729 57.33356499 33.99039434 53.52007195 31 49 C27.33108982 46.22594596 24.4679656 45.79375019 20 46.0625 C15.46163994 46.70401255 12.46586786 47.87226559 9 51 C5.51134207 56.34291922 5.57389486 61.09169852 5.59375 67.25390625 C5.58291382 68.23238022 5.57207764 69.21085419 5.56091309 70.21897888 C5.51518164 74.38804471 5.50356901 78.55704666 5.48876953 82.72631836 C5.47306803 85.77740556 5.44007083 88.8279748 5.40625 91.87890625 C5.40927124 92.81859756 5.41229248 93.75828888 5.41540527 94.72645569 C5.34426554 100.92634759 4.50662249 104.49337751 0 109 C-3.03704568 109.50421994 -5.95802594 109.45467228 -9 109 C-11.50160818 107.12379387 -12.61945652 105.76108697 -14 103 C-14.11448525 99.94491156 -14.16788532 96.91211544 -14.17700195 93.85620117 C-14.18357315 92.90809067 -14.19014435 91.95998016 -14.19691467 90.98313904 C-14.21667263 87.83641487 -14.22831549 84.68973846 -14.23828125 81.54296875 C-14.24235678 80.46985254 -14.2464323 79.39673634 -14.25063133 78.29110146 C-14.27150216 72.61195695 -14.28579982 66.93283669 -14.29516602 61.25366211 C-14.30623595 55.38222816 -14.34063995 49.51117262 -14.38033772 43.63987255 C-14.40645903 39.13002305 -14.41485385 34.62026434 -14.41844749 30.11034584 C-14.42332461 27.94577795 -14.43497042 25.7812144 -14.45348549 23.6167202 C-14.47778241 20.58816756 -14.47692908 17.56060229 -14.4699707 14.53198242 C-14.48278076 13.63672852 -14.49559082 12.74147461 -14.50878906 11.8190918 C-14.4744392 7.72029853 -14.32809311 5.54031303 -12.15812683 1.9667511 C-8.18729891 -1.6519566 -5.02221666 -1.14541783 0 0 Z " fill="#107B76" transform="translate(1223,105)"/>
<path d="M0 0 C9.57000655 7.80504633 15.45190469 16.85909023 16.75 29.25 C16.8739109 33.25645243 16.58222575 36.25519114 13.91918945 39.43847656 C9.11080246 42.18697294 4.55516938 41.85323078 -0.89453125 41.859375 C-2.58191658 41.88417938 -2.58191658 41.88417938 -4.3033905 41.90948486 C-7.8898157 41.95799783 -11.47581674 41.97934409 -15.0625 42 C-17.49676617 42.02815677 -19.93101255 42.05808378 -22.36523438 42.08984375 C-28.32674583 42.16375782 -34.28813784 42.2153811 -40.25 42.25 C-39.65392671 43.52724589 -39.04776421 44.79978583 -38.4375 46.0703125 C-38.10105469 46.77945801 -37.76460937 47.48860352 -37.41796875 48.21923828 C-34.90271085 52.59254832 -30.80882294 55.24102718 -26.25 57.25 C-18.32350247 59.12932255 -11.189565 57.93242446 -4.0625 54.125 C-0.61404626 52.30498275 1.79314803 51.54655965 5.75 52.25 C8.625 53.75 8.625 53.75 10.75 56.25 C11.50317552 60.99500575 11.62294812 62.99877437 8.875 66.9375 C-1.16935308 74.37032128 -11.82991517 77.32271988 -24.25 76.25 C-35.97936854 74.3276451 -45.8695787 69.81721279 -53.25 60.25 C-60.0018907 48.00277394 -60.98204606 35.23534988 -58.6015625 21.51171875 C-55.51286593 11.33485953 -48.42839721 2.11148263 -38.984375 -2.96875 C-25.94065567 -9.0155073 -11.90943775 -8.38241195 0 0 Z M-37.8125 16.625 C-39.65493693 19.6471765 -39.65493693 19.6471765 -40.25 25.25 C-28.04 25.25 -15.83 25.25 -3.25 25.25 C-6.41275639 16.81598295 -7.23167348 15.33357671 -14.625 11.5 C-22.95641151 8.62709948 -31.34855568 10.63402721 -37.8125 16.625 Z " fill="#107B76" transform="translate(1781.25,139.75)"/>
<path d="M0 0 C8.97641721 6.33019017 15.98979056 15.37489546 18.33203125 26.234375 C19.96731167 38.718345 19.02556823 51.24838353 11.33984375 61.6171875 C3.03710302 71.26249907 -6.13667 76.80314199 -18.94140625 77.90234375 C-32.22529531 78.34132284 -42.3740229 74.29596823 -52.09765625 65.4296875 C-60.27053467 56.85859458 -62.76979497 45.74441456 -62.71118164 34.23999023 C-62.44500451 23.27230928 -58.72267106 13.86311739 -51.34765625 5.6796875 C-37.38996905 -7.12305023 -16.48262028 -9.26975983 0 0 Z M-38.90625 19.8203125 C-44.49752088 27.03290041 -44.19349372 34.81761765 -43.34765625 43.6796875 C-41.73562682 49.91670614 -37.7074288 54.25833071 -32.34765625 57.6796875 C-26.60016348 60.70299689 -21.91478771 61.07185348 -15.640625 59.4765625 C-8.82435505 57.10770548 -5.13174514 52.7381256 -1.59765625 46.6796875 C0.84823616 40.44266187 0.72725628 33.1671815 -1.2265625 26.828125 C-4.44991245 19.78569046 -8.6949091 15.06521228 -15.97265625 12.3046875 C-25.08824846 10.61661487 -32.65592058 12.80138109 -38.90625 19.8203125 Z " fill="#107B76" transform="translate(621.34765625,138.3203125)"/>
<path d="M0 0 C8.13731508 6.19860306 13.36891713 14.75051694 15.5625 24.75 C16.72130008 37.99868119 15.87083885 49.84530525 7.5625 60.75 C6.6653125 61.9565625 6.6653125 61.9565625 5.75 63.1875 C-1.33520507 71.48731165 -11.43696364 74.88276629 -21.99609375 76.02734375 C-33.83719654 76.50098786 -44.81692904 72.61426672 -53.66015625 64.78125 C-62.53336536 55.62608845 -65.81838346 44.27111108 -65.6484375 31.74609375 C-64.82879926 20.10419508 -60.60890942 10.36147225 -52.0625 2.375 C-36.99728829 -10.1414908 -16.39599241 -10.72612079 0 0 Z M-40.875 17 C-46.13733256 24.03632002 -47.36344302 31.06135662 -46.4375 39.75 C-45.05042241 45.99722541 -41.99093558 51.03062265 -36.83984375 54.97265625 C-31.94593206 58.08290992 -26.95795826 59.33674304 -21.2109375 58.37890625 C-13.82706531 56.33628869 -8.35793746 52.03332856 -4.5 45.4375 C-1.60223536 35.38055212 -2.36682803 27.77761535 -7.125 18.4375 C-11.33869314 13.54050527 -15.87865267 10.69911122 -22.3125 9.6875 C-29.51527634 9.32182059 -35.93895029 11.68612921 -40.875 17 Z " fill="#107B76" transform="translate(714.4375,140.25)"/>
<path d="M0 0 C0.845625 -0.00128906 1.69125 -0.00257813 2.5625 -0.00390625 C5.95573112 0.78458496 6.93058123 1.7322892 9 4.5625 C9.60185716 7.80224503 9.55715711 11.00928964 9.5390625 14.296875 C9.55085541 15.2488678 9.56264832 16.2008606 9.57479858 17.18170166 C9.6100869 20.22546662 9.61922582 23.26854723 9.625 26.3125 C9.64139633 29.34196342 9.6635943 32.37112275 9.69662476 35.40045166 C9.71608952 37.28363253 9.72560777 39.1669516 9.72354126 41.05023193 C9.77643129 47.64273287 10.39922001 53.49433835 13.5 59.4375 C17.29162482 62.6603811 21.07599999 63.40412573 26 63.5625 C30.37566612 62.8511187 33.83817816 61.72432184 37 58.5625 C38.63305352 55.29639296 39.12832629 52.6774586 39.15771484 49.07861328 C39.17310806 47.72172897 39.17310806 47.72172897 39.18881226 46.33743286 C39.19611359 45.36240814 39.20341492 44.38738342 39.2109375 43.3828125 C39.23900374 41.31900245 39.26766819 39.25520047 39.296875 37.19140625 C39.3381507 33.93701381 39.37503825 30.68277232 39.40136719 27.42822266 C39.42897766 24.28776966 39.47484663 21.14800158 39.5234375 18.0078125 C39.52669037 17.03683624 39.52994324 16.06585999 39.53329468 15.06546021 C39.6475602 8.78266256 40.43138954 5.13111046 45 0.5625 C46.98828125 0.19140625 46.98828125 0.19140625 49.3125 0.125 C50.45138672 0.06505859 50.45138672 0.06505859 51.61328125 0.00390625 C55.38608626 0.88690317 56.66108674 2.48348486 59 5.5625 C59.72782748 9.18122944 59.65322049 12.73757471 59.59375 16.41796875 C59.59379028 17.47478348 59.59383057 18.53159821 59.59387207 19.62043762 C59.58851624 21.85549872 59.570931 24.09055929 59.54199219 26.32543945 C59.50035791 29.72081126 59.5009084 33.11418302 59.5078125 36.50976562 C59.4973112 38.68751361 59.48436806 40.86525145 59.46875 43.04296875 C59.46844788 44.54974434 59.46844788 44.54974434 59.46813965 46.08695984 C59.29953462 56.30298413 57.01204051 65.84187434 50 73.5625 C40.21480672 81.45487524 28.81780138 82.57700614 16.65625 81.3203125 C8.7842934 79.9621228 1.63734158 76.01787559 -3.4375 69.8125 C-8.68754606 61.74994942 -9.46052054 53.23866436 -9.43359375 43.82421875 C-9.4388356 42.74042435 -9.44407745 41.65662994 -9.44947815 40.53999329 C-9.45586067 38.26682386 -9.4546107 35.99362123 -9.44604492 33.72045898 C-9.43748051 30.24208435 -9.46643787 26.76532454 -9.49804688 23.28710938 C-9.49965778 21.07031299 -9.49908348 18.8535137 -9.49609375 16.63671875 C-9.50732773 15.60020676 -9.51856171 14.56369476 -9.53013611 13.49577332 C-9.48672823 9.01483582 -9.4505498 6.31862737 -7.12133789 2.40966797 C-4.56576705 0.18438899 -3.35533963 -0.0869524 0 0 Z " fill="#107B76" transform="translate(1514,134.4375)"/>
<path d="M0 0 C3.21268415 2.1916489 5.69855002 4.17344379 7.625 7.625 C8.22837535 11.15509258 8.35282007 14.37153211 6.5 17.5625 C3.79823836 19.09349826 1.73064495 19.5007742 -1.375 19.625 C-4.26037896 18.25444499 -6.5295537 16.50638902 -9.0625 14.5625 C-14.36361583 11.46184734 -20.27783295 9.79775495 -26.375 11.3125 C-29.62281009 12.41176422 -29.62281009 12.41176422 -31.375 15.625 C-31.3684389 18.66496532 -31.3684389 18.66496532 -30.375 21.625 C-27.61360589 24.1293946 -25.00607415 25.24608683 -21.453125 26.2734375 C-20.50953125 26.55703125 -19.5659375 26.840625 -18.59375 27.1328125 C-16.63108032 27.70611864 -14.66754875 28.27648325 -12.703125 28.84375 C-4.5594012 31.30014495 2.82666108 34.24294012 7.625 41.625 C10.78894315 48.21559639 10.73835306 56.08846676 8.5625 63 C2.20311534 71.61594051 -4.74113247 75.84709786 -15.375 77.625 C-27.10998942 78.69933002 -39.07236086 76.02561255 -48.375 68.625 C-51.3975607 65.58876255 -53.14567153 62.77164237 -54 58.5 C-53.12620147 54.48052675 -51.68845248 53.02196563 -48.375 50.625 C-45.125 49.875 -45.125 49.875 -41.375 50.625 C-38.93570051 52.22991432 -36.73479654 54.00225288 -34.4921875 55.87109375 C-29.04201464 60.38608935 -23.36679639 61.8455614 -16.375 61.625 C-13.43394599 60.83930326 -10.57554399 59.82554399 -8.375 57.625 C-7.95807147 54.20899407 -7.95807147 54.20899407 -8.375 50.625 C-11.16425841 47.959278 -14.04845301 46.9003476 -17.69921875 45.79296875 C-18.72853516 45.46876953 -19.75785156 45.14457031 -20.81835938 44.81054688 C-22.95999011 44.15168275 -25.10320053 43.49792896 -27.24804688 42.84960938 C-35.11532938 40.35773209 -43.43290184 37.41728921 -47.875 30 C-50.73284199 23.56985552 -51.46703884 17.36978528 -49.3125 10.5625 C-46.23602311 3.27911982 -40.62600496 -0.73249353 -33.48828125 -3.6484375 C-22.2540981 -7.51083688 -10.17811664 -5.94192076 0 0 Z " fill="#107B76" transform="translate(1702.375,138.375)"/>
<path d="M0 0 C3.28821056 2.30174739 4.27859978 4.15253215 5 8 C5.06624507 9.74886981 5.08552595 11.50002748 5.0625 13.25 C5.05347656 14.14203125 5.04445313 15.0340625 5.03515625 15.953125 C5.02355469 16.62859375 5.01195312 17.3040625 5 18 C5.88042969 17.94199219 6.76085938 17.88398438 7.66796875 17.82421875 C17.10189983 17.45775084 17.10189983 17.45775084 21.3125 20 C23.65990923 24.17317196 23.67921978 26.24546155 23 31 C21.68 32.32 20.36 33.64 19 35 C14.38 35 9.76 35 5 35 C5.33 49.19 5.66 63.38 6 78 C11.24373835 78.88812791 11.24373835 78.88812791 16.1875 78.75 C20 79 20 79 22.0625 81.0625 C23.28418499 84.8904463 23.12173424 87.14403856 22 91 C17.46833987 95.53166013 13.61534175 96.1833426 7.375 96.3125 C1.16461933 96.25475886 -3.87768611 95.68941992 -9 92 C-12.63817904 87.54323067 -14.12847861 83.95034962 -14.11352539 78.25317383 C-14.11344986 77.29240433 -14.11337433 76.33163483 -14.11329651 75.3417511 C-14.10813522 74.30729355 -14.10297394 73.272836 -14.09765625 72.20703125 C-14.0962413 71.14586594 -14.09482635 70.08470062 -14.09336853 68.99137878 C-14.08776606 65.59839065 -14.07521314 62.20546823 -14.0625 58.8125 C-14.05748532 56.51367283 -14.05292236 54.21484462 -14.04882812 51.91601562 C-14.03779583 46.27732128 -14.0210553 40.63866534 -14 35 C-14.68562012 35.02392822 -15.37124023 35.04785645 -16.07763672 35.07250977 C-16.97756348 35.09112061 -17.87749023 35.10973145 -18.8046875 35.12890625 C-19.69655762 35.15283447 -20.58842773 35.1767627 -21.50732422 35.20141602 C-24 35 -24 35 -27.125 32.9375 C-29.50177019 29.21389337 -29.77533825 27.34189423 -29 23 C-27.125 20.0625 -27.125 20.0625 -24 18 C-20.62316725 17.59787335 -17.38243292 17.70444761 -14 18 C-14.08701172 16.67935547 -14.08701172 16.67935547 -14.17578125 15.33203125 C-14.54119385 5.9252669 -14.54119385 5.9252669 -12.0625 1.6875 C-7.94392756 -0.58191747 -4.60314824 -0.93783768 0 0 Z " fill="#107B76" transform="translate(1317,118)"/>
<path d="M0 0 C2.24155061 1.96135678 3.2211233 2.86815622 4 5.75 C3.99273811 9.33737331 3.69344485 12.55573387 1.875 15.6875 C-1.00829384 17.32136651 -3.72743312 17.51624522 -7 17.75 C-7.99 17.42 -8.98 17.09 -10 16.75 C-14.54396223 16.22203486 -18.08469122 16.35279053 -22.3125 18.1875 C-27.03416415 22.68955187 -29.15456627 28.23734224 -29.49829102 34.73144531 C-29.51898832 36.51355267 -29.52010348 38.29597106 -29.50390625 40.078125 C-29.51332748 41.03015808 -29.52274872 41.98219116 -29.53245544 42.96307373 C-29.56090676 45.97560645 -29.56418979 48.98734434 -29.5625 52 C-29.56611253 55.02682044 -29.5756585 58.05307154 -29.60325623 61.07977295 C-29.61999671 62.95506589 -29.62295801 64.83054702 -29.61024475 66.70587158 C-29.6491917 71.5236684 -29.80869718 74.86459733 -33 78.75 C-36.45031261 80.47515631 -40.22716304 80.24677924 -44 79.75 C-47.03215675 77.55168636 -47.81654398 76.30036806 -49 72.75 C-49.10434768 70.64529242 -49.14862925 68.53743137 -49.16113281 66.43017578 C-49.17074036 65.1251712 -49.1803479 63.82016663 -49.19024658 62.47561646 C-49.19509446 61.04885025 -49.19937331 59.62208201 -49.203125 58.1953125 C-49.20887866 56.73184203 -49.21463636 55.26837157 -49.22039795 53.80490112 C-49.23089966 50.73662973 -49.2367478 47.66838449 -49.24023438 44.60009766 C-49.24571852 40.67365145 -49.269748 36.74755212 -49.29820633 32.82121468 C-49.31685422 29.79799396 -49.32203944 26.77485647 -49.32357025 23.7515831 C-49.32659228 22.30433124 -49.33460569 20.85708068 -49.34775543 19.40988541 C-49.36485954 17.38286479 -49.36108456 15.35570075 -49.35644531 13.32861328 C-49.36009094 12.17628204 -49.36373657 11.02395081 -49.36749268 9.83670044 C-48.95752161 6.39320901 -48.05931753 4.5142254 -46 1.75 C-42.52736727 0.01368364 -38.78806987 0.14809598 -35 0.75 C-32.24430553 2.93159145 -30.56411253 4.62177494 -29 7.75 C-28.59910156 7.35167969 -28.19820312 6.95335937 -27.78515625 6.54296875 C-20.32094953 -0.41346881 -9.88930159 -4.12054233 0 0 Z " fill="#107B76" transform="translate(1860,134.25)"/>
<path d="M0 0 C2.24155061 1.96135678 3.2211233 2.86815622 4 5.75 C3.99273811 9.33737331 3.69344485 12.55573387 1.875 15.6875 C-1.00829384 17.32136651 -3.72743312 17.51624522 -7 17.75 C-7.99 17.42 -8.98 17.09 -10 16.75 C-14.54396223 16.22203486 -18.08469122 16.35279053 -22.3125 18.1875 C-27.03416415 22.68955187 -29.15456627 28.23734224 -29.49829102 34.73144531 C-29.51898832 36.51355267 -29.52010348 38.29597106 -29.50390625 40.078125 C-29.51332748 41.03015808 -29.52274872 41.98219116 -29.53245544 42.96307373 C-29.56090676 45.97560645 -29.56418979 48.98734434 -29.5625 52 C-29.56611253 55.02682044 -29.5756585 58.05307154 -29.60325623 61.07977295 C-29.61999671 62.95506589 -29.62295801 64.83054702 -29.61024475 66.70587158 C-29.6491917 71.5236684 -29.80869718 74.86459733 -33 78.75 C-36.45031261 80.47515631 -40.22716304 80.24677924 -44 79.75 C-47.03215675 77.55168636 -47.81654398 76.30036806 -49 72.75 C-49.10434768 70.64529242 -49.14862925 68.53743137 -49.16113281 66.43017578 C-49.17074036 65.1251712 -49.1803479 63.82016663 -49.19024658 62.47561646 C-49.19509446 61.04885025 -49.19937331 59.62208201 -49.203125 58.1953125 C-49.20887866 56.73184203 -49.21463636 55.26837157 -49.22039795 53.80490112 C-49.23089966 50.73662973 -49.2367478 47.66838449 -49.24023438 44.60009766 C-49.24571852 40.67365145 -49.269748 36.74755212 -49.29820633 32.82121468 C-49.31685422 29.79799396 -49.32203944 26.77485647 -49.32357025 23.7515831 C-49.32659228 22.30433124 -49.33460569 20.85708068 -49.34775543 19.40988541 C-49.36485954 17.38286479 -49.36108456 15.35570075 -49.35644531 13.32861328 C-49.36009094 12.17628204 -49.36373657 11.02395081 -49.36749268 9.83670044 C-48.95752161 6.39320901 -48.05931753 4.5142254 -46 1.75 C-42.55809338 0.02904669 -38.77113177 0.37355904 -35 0.75 C-31.60768089 2.48965082 -30.60028767 4.39701631 -29 7.75 C-28.59910156 7.35167969 -28.19820312 6.95335937 -27.78515625 6.54296875 C-20.32094953 -0.41346881 -9.88930159 -4.12054233 0 0 Z " fill="#107B76" transform="translate(1066,134.25)"/>
<path d="M0 0 C2.40318796 1.82251335 3.90467026 3.68052211 5.1328125 6.42578125 C5.04289761 10.20220661 3.87210228 12.75785509 2.0703125 16.05078125 C0.3828125 17.55078125 0.3828125 17.55078125 -1.9296875 18.05078125 C-3.86167762 17.85430768 -5.79408662 17.64942756 -7.71484375 17.36328125 C-13.29787092 16.57555255 -17.33051003 16.10312053 -22.3046875 19.05078125 C-27.93182293 25.48179317 -28.34981667 32.07329928 -28.265625 40.24609375 C-28.27812889 42.19792005 -28.29116561 44.14974299 -28.3046875 46.1015625 C-28.30862462 49.14741824 -28.30460542 52.19294469 -28.29003906 55.23876953 C-28.28146258 58.20003842 -28.30314741 61.15994495 -28.328125 64.12109375 C-28.31478119 65.02747589 -28.30143738 65.93385803 -28.28768921 66.8677063 C-28.33839724 71.21880408 -28.54761553 74.15595659 -31.32250977 77.62597656 C-33.9296875 80.05078125 -33.9296875 80.05078125 -36.24609375 80.77734375 C-42.32759003 80.50235435 -42.32759003 80.50235435 -45.4296875 78.17578125 C-48.03004553 74.49194071 -48.06453332 72.25983901 -48.09082031 67.75268555 C-48.09826767 66.78406082 -48.09826767 66.78406082 -48.10586548 65.79586792 C-48.12049214 63.65556783 -48.12729053 61.5153419 -48.1328125 59.375 C-48.13856435 57.88768003 -48.14432208 56.40036009 -48.15008545 54.91304016 C-48.16059742 51.79171401 -48.16643853 48.67041363 -48.16992188 45.54907227 C-48.17540151 41.55421843 -48.199417 37.55970631 -48.22789383 33.56495953 C-48.24654275 30.49112462 -48.25172704 27.41737157 -48.25325775 24.34348488 C-48.25628066 22.87111357 -48.26429704 21.39874357 -48.27744293 19.92642784 C-48.29454835 17.86304342 -48.29261264 15.80048762 -48.28613281 13.73706055 C-48.29160126 11.97739204 -48.29160126 11.97739204 -48.29718018 10.18217468 C-47.88989524 6.7117127 -47.00861238 4.83259713 -44.9296875 2.05078125 C-41.47982162 0.32584831 -37.70211128 0.55317098 -33.9296875 1.05078125 C-31.12284611 3.13791972 -29.87517824 5.13254514 -27.9296875 8.05078125 C-27.52878906 7.65246094 -27.12789062 7.25414062 -26.71484375 6.84375 C-20.0185135 0.60295242 -9.0410709 -4.4473284 0 0 Z " fill="#107B76" transform="translate(1638.9296875,133.94921875)"/>
<path d="M0 0 C3.20243096 2.86140584 4.2507267 5.14753285 4.5146637 9.3260498 C4.5414047 11.07589738 4.54613805 12.826166 4.53344727 14.57617188 C4.54206284 15.53447403 4.55067841 16.49277618 4.55955505 17.4801178 C4.58223135 20.64327105 4.57547331 23.80553963 4.56640625 26.96875 C4.57164082 29.16923282 4.57791669 31.3697134 4.58518982 33.57019043 C4.59559693 38.18020187 4.5910275 42.78990469 4.57641602 47.39990234 C4.55922201 53.30843251 4.5827302 59.21599081 4.61790562 65.12441254 C4.63986146 69.66776985 4.63844257 74.21089394 4.6301403 78.75428772 C4.62931991 80.93279588 4.63620005 83.11132102 4.65091133 85.28977966 C4.66832454 88.33507122 4.6538411 91.37860733 4.63110352 94.42382812 C4.64279572 95.32371964 4.65448792 96.22361115 4.66653442 97.15077209 C4.59846788 101.62964848 4.44926573 103.42983859 1.58946228 107.0592041 C-0.93084026 108.94816494 -1.9216543 109.66800782 -5 109.5625 C-5.639375 109.56378906 -6.27875 109.56507813 -6.9375 109.56640625 C-10.18638302 108.67419406 -11.67837679 107.47374106 -14 105 C-14.75771877 101.78870517 -14.67270403 98.6246002 -14.63110352 95.33789062 C-14.63825882 94.35862106 -14.64541412 93.3793515 -14.65278625 92.3704071 C-14.66970151 89.13188088 -14.65025335 85.89473339 -14.62890625 82.65625 C-14.62973468 80.40710333 -14.63219309 78.15795671 -14.63621521 75.90881348 C-14.63907516 71.19439476 -14.62435216 66.48045062 -14.59692383 61.76611328 C-14.56284127 55.71966316 -14.56885769 49.67406185 -14.5875864 43.62757111 C-14.59814924 38.98302116 -14.58922498 34.33866911 -14.57420158 29.69413757 C-14.56901408 27.46458015 -14.56950843 25.23500212 -14.57574654 23.00544739 C-14.58118991 19.8905485 -14.56085079 16.77686934 -14.53344727 13.66210938 C-14.53997314 12.73835007 -14.54649902 11.81459076 -14.55322266 10.86283875 C-14.45991591 4.63321937 -14.45991591 4.63321937 -12.15415955 1.45861816 C-7.91663703 -1.41068059 -4.86828028 -1.19571796 0 0 Z " fill="#107B76" transform="translate(541,105)"/>
<path d="M0 0 C2.97 0 5.94 0 9 0 C11.47119141 2.48754883 11.47119141 2.48754883 13.3515625 5.95703125 C13.69955902 6.57462814 14.04755554 7.19222504 14.40609741 7.82853699 C15.5120357 9.80699157 16.56880315 11.80712715 17.625 13.8125 C18.34052841 15.11830693 19.05925372 16.42236745 19.78125 17.72460938 C20.84421755 19.64374039 21.90423689 21.56392236 22.95050049 23.49221802 C26.03651247 29.16672081 29.43970362 34.61036065 33 40 C39.58379882 29.54784012 46.04933399 19.02829777 52.43994141 8.45678711 C53.0179248 7.50296143 53.5959082 6.54913574 54.19140625 5.56640625 C54.70904541 4.70990479 55.22668457 3.85340332 55.76000977 2.97094727 C57 1 57 1 58 0 C60.64 0 63.28 0 66 0 C66 23.76 66 47.52 66 72 C63.69 72 61.38 72 59 72 C58.505 43.29 58.505 43.29 58 14 C52.71921959 22.71853624 52.71921959 22.71853624 47.44116211 31.4387207 C45.65721134 34.38049846 43.86748094 37.31849147 42.07000732 40.25201416 C41.0264678 41.95676167 39.98801948 43.6646224 38.94970703 45.37255859 C38.32821777 46.37754395 37.70672852 47.3825293 37.06640625 48.41796875 C36.52056885 49.30637451 35.97473145 50.19478027 35.41235352 51.11010742 C34.94627686 51.73377197 34.4802002 52.35743652 34 53 C33.34 53 32.68 53 32 53 C30.6983012 51.15218292 29.49386524 49.23568636 28.33203125 47.296875 C27.9741301 46.70384583 27.61622894 46.11081665 27.2474823 45.49981689 C26.09560646 43.58725063 24.95406518 41.66873448 23.8125 39.75 C23.0625001 38.50221256 22.31185596 37.25481211 21.56054688 36.0078125 C16.97353436 28.37644549 12.48682578 20.69170134 8 13 C7.67 32.47 7.34 51.94 7 72 C4.69 72 2.38 72 0 72 C0 48.24 0 24.48 0 0 Z " fill="#107B76" transform="translate(968,273)"/>
<path d="M0 0 C2.50160818 1.87620613 3.61945652 3.23891303 5 6 C5.11733162 8.09177409 5.1697988 10.18729143 5.19287109 12.28222656 C5.20104858 12.92637009 5.20922607 13.57051361 5.21765137 14.23417664 C5.24249777 16.36964999 5.25902122 18.5050568 5.2734375 20.640625 C5.27876118 21.37048363 5.28408485 22.10034225 5.28956985 22.85231781 C5.316301 26.71712697 5.33567402 30.58190387 5.35009766 34.44677734 C5.36342724 37.64205618 5.39126008 40.83669491 5.43212891 44.03173828 C5.48150716 47.89205773 5.5062251 51.75179735 5.51332474 55.61241913 C5.52002852 57.08121823 5.53522817 58.55000484 5.55921555 60.01862335 C5.75840429 72.95428095 5.75840429 72.95428095 2.61206055 76.90283203 C-0.87516439 79.70265091 -2.6147148 79.75463629 -6.91015625 79.46875 C-9.90957133 78.795984 -11.25192088 77.47644542 -13 75 C-14.40468119 72.19063763 -14.14280521 69.84434393 -14.16113281 66.7019043 C-14.16858017 65.73327957 -14.16858017 65.73327957 -14.17617798 64.74508667 C-14.19080464 62.60478658 -14.19760303 60.46456065 -14.203125 58.32421875 C-14.20887685 56.83689878 -14.21463458 55.34957884 -14.22039795 53.86225891 C-14.23090992 50.74093276 -14.23675103 47.61963238 -14.24023438 44.49829102 C-14.24571401 40.50343718 -14.2697295 36.50892506 -14.29820633 32.51417828 C-14.31685525 29.44034337 -14.32203954 26.36659032 -14.32357025 23.29270363 C-14.32659316 21.82033232 -14.33460954 20.34796232 -14.34775543 18.87564659 C-14.36486085 16.81226217 -14.36292514 14.74970637 -14.35644531 12.6862793 C-14.36191376 10.92661079 -14.36191376 10.92661079 -14.36749268 9.13139343 C-13.96020774 5.66093145 -13.07892488 3.78181588 -11 1 C-7.55258453 -0.72370774 -3.76964661 -0.50306672 0 0 Z " fill="#107B76" transform="translate(1094,135)"/>
<path d="M0 0 C1.98 0 3.96 0 6 0 C6.33 9.24 6.66 18.48 7 28 C9.31 26.02 11.62 24.04 14 22 C21.05024292 18.47487854 27.97521454 17.7694403 35.6796875 19.65625 C43.35203314 22.36139314 48.6061206 26.88033234 52.4375 34.0625 C55.37309117 41.49678932 55.37309117 50.50321068 52.4375 57.9375 C48.87945447 64.63060662 43.65924116 69.55156193 36.5859375 72.33984375 C28.82157179 74.32198545 21.02786598 73.89587865 13.87890625 70.22265625 C11.14120014 68.44115519 9.12939983 66.47285142 7 64 C6.67 66.64 6.34 69.28 6 72 C4.02 72 2.04 72 0 72 C0 48.24 0 24.48 0 0 Z M10 33 C6.0338549 38.60730859 5.22178569 44.2517702 6 51 C7.85511136 57.15762868 11.65728824 61.51224222 17 65 C22.29482369 67.51763675 27.22895755 67.78512078 33 67 C39.48616263 64.45147404 43.85099764 59.68400405 47.3125 53.75 C48.97962437 47.08150254 48.77995992 40.85345816 45.3359375 34.8203125 C42.02119822 30.30373792 37.52592434 26.31569627 32 25 C22.96447224 24.05879919 16.50707816 26.78869812 10 33 Z " fill="#107B76" transform="translate(825,273)"/>
<path d="M0 0 C1.98 0 3.96 0 6 0 C6 23.76 6 47.52 6 72 C4.02 72 2.04 72 0 72 C-0.495 68.04 -0.495 68.04 -1 64 C-1.50789062 64.48210937 -2.01578125 64.96421875 -2.5390625 65.4609375 C-3.22742188 66.09257812 -3.91578125 66.72421875 -4.625 67.375 C-5.29789063 68.00148438 -5.97078125 68.62796875 -6.6640625 69.2734375 C-12.99314267 73.95145328 -20.46499252 73.71460455 -28 73 C-35.6026141 71.0907721 -40.99996006 66.45568062 -45.3203125 60.0390625 C-49.20605993 52.72950963 -49.47304055 43.99611909 -47.15234375 36.125 C-43.8759659 28.83922417 -38.52569662 23.31055424 -31.1875 20.0625 C-23.25234463 17.57791123 -15.8710961 18.55572516 -8.2890625 21.63671875 C-6 23 -6 23 -1 28 C-0.67 18.76 -0.34 9.52 0 0 Z M-37.375 32.4375 C-41.94546751 38.32446087 -42.88986811 43.62197959 -42 51 C-39.94436269 57.97931948 -35.21541031 62.45681857 -29.109375 66.140625 C-24.33539038 68.0855817 -18.61422894 67.74628416 -13.71484375 66.34765625 C-7.72753397 63.65971178 -3.87086812 59.23149949 -0.625 53.625 C0.99385617 46.82580408 0.38475134 41.18592486 -3 35 C-6.6283023 29.70093307 -10.67315209 26.33319901 -17 25 C-25.4250698 24.03396756 -31.65557676 26.09489505 -37.375 32.4375 Z " fill="#107B76" transform="translate(777,273)"/>
<path d="M0 0 C6.1724596 4.24127422 10.53123342 9.47771884 12 17 C12.80071585 25.95226576 11.94721362 33.67228421 6.4921875 41.03515625 C1.58035941 46.41532144 -3.90933037 49.55830806 -11.18359375 50.34375 C-19.33271777 50.56985286 -25.66978812 49.97593402 -31.9375 44.375 C-32.618125 43.59125 -33.29875 42.8075 -34 42 C-34.33 41.67 -34.66 41.34 -35 41 C-35.33 50.24 -35.66 59.48 -36 69 C-37.98 69 -39.96 69 -42 69 C-42 45.24 -42 21.48 -42 -3 C-40.02 -3 -38.04 -3 -36 -3 C-35.67 -0.36 -35.34 2.28 -35 5 C-34.5875 4.60167969 -34.175 4.20335937 -33.75 3.79296875 C-23.93587969 -5.21061037 -11.67264336 -7.12715275 0 0 Z M-32.8125 11.2890625 C-36.44961625 16.52938131 -36.75190724 21.76583241 -36 28 C-33.94436269 34.97931948 -29.21541031 39.45681857 -23.109375 43.140625 C-18.33539038 45.0855817 -12.61422894 44.74628416 -7.71484375 43.34765625 C-1.58191845 40.59433911 2.54536185 36.10763605 5.375 30.0625 C6.93737728 22.40685132 6.1820064 16.63479607 2 10 C-2.22868111 5.1979384 -6.67241368 2.51672672 -13.09375 1.75 C-21.68334343 1.27933735 -27.59546107 4.56928954 -32.8125 11.2890625 Z " fill="#107B76" transform="translate(599,296)"/>
<path d="M0 0 C5.25698602 4.47487322 8.28858955 9.35570061 10 16 C10 19.3 10 22.6 10 26 C-5.18 26 -20.36 26 -36 26 C-31.6495926 36.59014653 -31.6495926 36.59014653 -24 42 C-17.76717258 44.07760914 -10.42577932 44.08831083 -4.4375 41.25 C-1.59897897 39.59763848 0.34384859 37.89826497 2 35 C6.875 36.75 6.875 36.75 8 39 C3.73199629 44.69067162 -0.76418067 48.64007651 -8 50 C-18.29906516 50.78236983 -25.9835987 49.92900917 -34.3125 43.6875 C-40.32655625 37.67344375 -42.13767485 31.67650303 -42.3125 23.3125 C-42.26622415 16.95287542 -41.32270297 12.40662818 -38 7 C-37.443125 6.0925 -36.88625 5.185 -36.3125 4.25 C-26.47770069 -5.31899392 -11.79581867 -7.15385255 0 0 Z M-32.7734375 10.92578125 C-34.5072645 13.65824059 -34.5072645 13.65824059 -36 20 C-22.8 20 -9.6 20 4 20 C2.15467518 12.6187007 1.38205674 9.6875978 -4 5 C-14.80300932 -1.3187413 -24.96671099 1.91969732 -32.7734375 10.92578125 Z " fill="#107B76" transform="translate(711,296)"/>
<path d="M0 0 C7.49112798 7.68826293 9.375 14.75188912 9.375 25.4375 C-5.805 25.4375 -20.985 25.4375 -36.625 25.4375 C-32.3946115 34.98723099 -32.3946115 34.98723099 -25.0625 41.25 C-18.8680838 43.38988923 -12.3819162 43.38988923 -6.1875 41.25 C-3.33303556 39.23098857 -0.98838313 37.00941694 1.375 34.4375 C3.025 35.0975 4.675 35.7575 6.375 36.4375 C6.375 39.4375 6.375 39.4375 4.125 41.9375 C-3.1695318 48.56889255 -9.24313093 49.92880521 -19.08203125 49.7421875 C-26.33314946 49.11860732 -31.57364482 46.97762587 -36.5625 41.625 C-42.44854226 34.61092016 -43.33921303 27.25824702 -43.03515625 18.39453125 C-42.28997768 11.20533226 -39.57380042 5.98066893 -34.375 1 C-24.0110525 -6.88464109 -10.86429709 -6.46684351 0 0 Z M-32.5625 8.1875 C-35.20582522 11.97553966 -35.20582522 11.97553966 -36.625 19.4375 C-23.425 19.4375 -10.225 19.4375 3.375 19.4375 C0.23945255 9.30654186 0.23945255 9.30654186 -7.3125 3.125 C-16.00023314 -0.8166567 -25.99263771 1.13597625 -32.5625 8.1875 Z " fill="#107B76" transform="translate(1243.625,296.5625)"/>
<path d="M0 0 C5.53230954 4.09094154 9.37127974 9.28273358 11 16 C11.85882308 24.22522308 12.21779617 32.18975954 7 39 C4.5625 41.75 4.5625 41.75 2 44 C1.195625 44.721875 0.39125 45.44375 -0.4375 46.1875 C-7.19499138 50.96718902 -15.03937516 50.83380304 -23 50 C-31.16667807 47.62403818 -36.85018939 42.38842602 -41.09375 35.12890625 C-44.15365726 28.31494611 -44.17877108 19.82183671 -41.9375 12.75 C-38.83793628 5.79770754 -33.7747311 0.81622207 -26.89453125 -2.30859375 C-17.79570555 -5.62919612 -8.38337741 -4.83546342 0 0 Z M-33 10 C-35.97621684 15.42721894 -37.90560203 20.77398604 -37 27 C-35.03109321 33.61739087 -31.86560133 38.2806478 -26 42 C-20.34430945 44.69362676 -13.97213144 45.25872097 -7.94140625 43.34765625 C-2.52649862 40.53769305 1.29810218 35.8622827 4.375 30.6875 C5.92778077 24.01054268 5.77652208 17.84743585 2.3359375 11.8203125 C-0.97880178 7.30373792 -5.47407566 3.31569627 -11 2 C-19.4224244 1.12266413 -27.40149609 3.20757883 -33 10 Z " fill="#107B76" transform="translate(1390,296)"/>
<path d="M0 0 C5.53230954 4.09094154 9.37127974 9.28273358 11 16 C11.85882308 24.22522308 12.21779617 32.18975954 7 39 C4.5625 41.75 4.5625 41.75 2 44 C1.195625 44.721875 0.39125 45.44375 -0.4375 46.1875 C-7.19499138 50.96718902 -15.03937516 50.83380304 -23 50 C-31.16667807 47.62403818 -36.85018939 42.38842602 -41.09375 35.12890625 C-44.15365726 28.31494611 -44.17877108 19.82183671 -41.9375 12.75 C-38.83793628 5.79770754 -33.7747311 0.81622207 -26.89453125 -2.30859375 C-17.79570555 -5.62919612 -8.38337741 -4.83546342 0 0 Z M-33 10 C-35.97621684 15.42721894 -37.90560203 20.77398604 -37 27 C-35.03109321 33.61739087 -31.86560133 38.2806478 -26 42 C-20.34430945 44.69362676 -13.97213144 45.25872097 -7.94140625 43.34765625 C-2.52649862 40.53769305 1.29810218 35.8622827 4.375 30.6875 C5.92778077 24.01054268 5.77652208 17.84743585 2.3359375 11.8203125 C-0.97880178 7.30373792 -5.47407566 3.31569627 -11 2 C-19.4224244 1.12266413 -27.40149609 3.20757883 -33 10 Z " fill="#107B76" transform="translate(1089,296)"/>
<path d="M0 0 C2.31 0 4.62 0 7 0 C7.46897705 1.05912598 7.9379541 2.11825195 8.42114258 3.20947266 C10.16970959 7.15737436 11.92014976 11.10444321 13.67114258 15.05126953 C14.42718398 16.75612267 15.18272447 18.46119803 15.93774414 20.16650391 C17.02617311 22.62461706 18.11643042 25.08191231 19.20703125 27.5390625 C19.54152786 28.29555084 19.87602448 29.05203918 20.22065735 29.83145142 C22.04766915 33.94255129 23.95190048 37.99248728 26 42 C30.10492883 34.35531369 33.05890147 26.28545435 36.125 18.1875 C37.18583341 15.3876734 38.25166391 12.58982017 39.3203125 9.79296875 C39.78711426 8.5608667 40.25391602 7.32876465 40.73486328 6.05932617 C42 3 42 3 44 0 C47.125 -0.1875 47.125 -0.1875 50 0 C49.40011188 3.34979467 48.57573583 6.39729238 47.34521484 9.56811523 C47.00751068 10.44350449 46.66980652 11.31889374 46.3218689 12.22080994 C45.95526154 13.15727859 45.58865417 14.09374725 45.2109375 15.05859375 C44.82942535 16.03933365 44.44791321 17.02007355 44.05484009 18.03053284 C43.24490874 20.10834544 42.43279155 22.18530714 41.61865234 24.26147461 C40.39281411 27.39200653 39.17842814 30.52681039 37.96484375 33.66210938 C24.97627165 67.01186417 24.97627165 67.01186417 15 72 C12.3276379 72.13415472 9.67749512 72.04318541 7 72 C7 70.35 7 68.7 7 67 C7.90492188 66.65388672 7.90492188 66.65388672 8.828125 66.30078125 C13.7865948 64.27740567 17.06989511 62.68816782 20 58 C20.433125 57.34 20.86625 56.68 21.3125 56 C23.04896687 50.94846 19.70259183 45.80940315 17.578125 41.27734375 C17.2362616 40.536017 16.89439819 39.79469025 16.54217529 39.03089905 C15.44982082 36.66406375 14.35036118 34.30062217 13.25 31.9375 C0 3.3782983 0 3.3782983 0 0 Z " fill="#107B76" transform="translate(882,293)"/>
<path d="M0 0 C5.35798384 4.39354674 7.16833142 9.17380796 8 16 C8.23158258 21.85750511 8.18934145 27.70196534 8.125 33.5625 C8.11495088 35.1594996 8.10582844 36.75650532 8.09765625 38.35351562 C8.07579391 42.23583006 8.0413706 46.11784644 8 50 C5.69 50 3.38 50 1 50 C0.98598145 48.32043213 0.98598145 48.32043213 0.97167969 46.60693359 C0.93167839 42.43563684 0.86589195 38.26506978 0.79248047 34.09423828 C0.76432947 32.29225061 0.74308578 30.49014081 0.72900391 28.68798828 C0.70749245 26.09083802 0.66080243 23.49514705 0.609375 20.8984375 C0.60814636 20.0982016 0.60691772 19.2979657 0.60565186 18.47348022 C0.46938359 13.21907895 -0.53045544 10.17457277 -4 6 C-8.0121104 3.54815476 -12.41258338 3.34103408 -17 4 C-21.81060619 5.37944787 -24.24117004 6.93763806 -27.1875 11.0625 C-30.3991336 17.92272416 -29.68419209 26.07135849 -29.75 33.5 C-29.7781948 35.10159432 -29.80812708 36.70315905 -29.83984375 38.3046875 C-29.91329515 42.2030716 -29.963122 46.1011054 -30 50 C-31.98 50 -33.96 50 -36 50 C-36 32.84 -36 15.68 -36 -2 C-34.02 -2 -32.04 -2 -30 -2 C-29.67 -0.02 -29.34 1.96 -29 4 C-28.29875 3.21625 -27.5975 2.4325 -26.875 1.625 C-19.76872832 -4.86333501 -8.16185012 -4.92163065 0 0 Z " fill="#107B76" transform="translate(1148,295)"/>
<path d="M0 0 C4.63776111 2.69902491 7.63349581 6.02779205 9.74560547 11.02783203 C10.82439861 15.13395471 10.87631405 18.83195208 10.8203125 23.0546875 C10.8174826 23.86745148 10.81465271 24.68021545 10.81173706 25.51760864 C10.80060619 28.09522675 10.77551515 30.67248819 10.75 33.25 C10.73996101 35.00520329 10.73083677 36.76041206 10.72265625 38.515625 C10.70069015 42.80221926 10.66620978 47.0885493 10.625 51.375 C8.645 51.375 6.665 51.375 4.625 51.375 C4.61041748 50.38693359 4.59583496 49.39886719 4.58081055 48.38085938 C4.52243665 44.68291687 4.44520976 40.98555864 4.36254883 37.28808594 C4.32948202 35.69378202 4.30139441 34.09936617 4.27856445 32.50488281 C4.24467928 30.20069073 4.19235263 27.89750775 4.13671875 25.59375 C4.13032883 24.89133179 4.1239389 24.18891357 4.11735535 23.46520996 C3.9484709 17.66256213 2.95145048 11.62874891 -1.375 7.4375 C-5.61233604 5.18641523 -9.6692242 4.87495551 -14.375 5.375 C-18.5479185 6.97996865 -21.57467486 8.87459357 -24.375 12.375 C-26.25914033 16.98133677 -26.70678058 21.25848241 -26.7890625 26.1796875 C-26.80842865 26.9036673 -26.8277948 27.62764709 -26.8477478 28.37356567 C-26.90709886 30.66559398 -26.95374878 32.95767374 -27 35.25 C-27.03822087 36.81252081 -27.07727494 38.37502148 -27.1171875 39.9375 C-27.21276308 43.74983465 -27.29695606 47.5622678 -27.375 51.375 C-29.355 51.375 -31.335 51.375 -33.375 51.375 C-33.375 34.215 -33.375 17.055 -33.375 -0.625 C-31.395 -0.625 -29.415 -0.625 -27.375 -0.625 C-27.045 1.355 -26.715 3.335 -26.375 5.375 C-25.488125 4.59125 -24.60125 3.8075 -23.6875 3 C-17.17680653 -2.75363609 -7.8448727 -3.57261755 0 0 Z " fill="#107B76" transform="translate(486.375,293.625)"/>
<path d="M0 0 C2.46505333 1.76075238 4.11258631 3.63900743 5.6953125 6.2109375 C5.6953125 7.2009375 5.6953125 8.1909375 5.6953125 9.2109375 C4.0453125 9.8709375 2.3953125 10.5309375 0.6953125 11.2109375 C0.1384375 10.4271875 -0.4184375 9.6434375 -0.9921875 8.8359375 C-4.3411458 5.03441727 -6.75840721 4.35150844 -11.7421875 3.8984375 C-15.76720783 4.25150946 -18.0446999 4.80475618 -21.3046875 7.2109375 C-22.6356191 10.61063561 -22.6356191 10.61063561 -22.3046875 14.2109375 C-19.02319018 18.92074494 -14.11955339 19.76145973 -8.8671875 21.2109375 C3.43991682 24.622808 3.43991682 24.622808 7.0703125 30.3984375 C8.15872384 35.29628853 8.06119072 39.85735582 5.49609375 44.27734375 C2.29729948 48.298925 -0.25523124 49.89449419 -5.3046875 51.2109375 C-12.93340488 52.02491975 -20.03723419 52.03318981 -26.3046875 47.2109375 C-28.40051863 45.28598948 -29.71142162 43.62653416 -31.3046875 41.2109375 C-30.9746875 40.2209375 -30.6446875 39.2309375 -30.3046875 38.2109375 C-27.7421875 37.0234375 -27.7421875 37.0234375 -25.3046875 36.2109375 C-24.7478125 37.1596875 -24.1909375 38.1084375 -23.6171875 39.0859375 C-21.10283969 42.48370481 -20.35077253 43.3313538 -16.3046875 44.2109375 C-11.66652655 44.6318927 -7.67296264 44.75254641 -3.3046875 43.0234375 C-0.87144928 40.81831537 0.07841352 39.44965716 0.6953125 36.2109375 C0.09184708 33.44481618 0.09184708 33.44481618 -2.3046875 31.2109375 C-7.13785233 28.66287124 -12.30326257 27.1955329 -17.5546875 25.7734375 C-22.20466251 24.44068876 -24.8920103 22.6236147 -28.3046875 19.2109375 C-30.16086957 15.49857336 -29.75278731 11.26250662 -29.3046875 7.2109375 C-27.10524077 2.73058306 -24.80336932 0.34781136 -20.3046875 -1.7890625 C-13.28421783 -3.88340429 -6.40287425 -3.65508206 0 0 Z " fill="#107B76" transform="translate(1333.3046875,294.7890625)"/>
<path d="M0 0 C3.18112867 2.24817036 4.35847262 4.82965141 5.91796875 8.35546875 C2.16796875 11.35546875 2.16796875 11.35546875 -0.08203125 11.35546875 C-0.28828125 10.75734375 -0.49453125 10.15921875 -0.70703125 9.54296875 C-2.68671489 6.39347205 -4.61310867 5.64025489 -8.08203125 4.35546875 C-12.56242166 3.61468707 -15.41266225 4.02686942 -19.51953125 6.04296875 C-22.16556108 8.1410529 -22.16556108 8.1410529 -23.26953125 10.79296875 C-23.30914031 13.54319466 -23.30914031 13.54319466 -21.12890625 15.828125 C-17.32830523 18.98067482 -13.83653366 20.03787787 -9.14453125 21.35546875 C-2.96813461 23.09843876 1.2784245 24.82483399 5.91796875 29.35546875 C7.77784472 33.0752207 7.34891448 37.29583505 6.91796875 41.35546875 C4.8227414 46.06973028 2.01963097 48.59402723 -2.60546875 50.6640625 C-8.76526889 52.38375434 -16.05240424 52.46371295 -22.08203125 50.16796875 C-26.29497726 47.6226472 -29.49130352 45.40029551 -30.89453125 40.54296875 C-30.95640625 39.82109375 -31.01828125 39.09921875 -31.08203125 38.35546875 C-29.43203125 37.69546875 -27.78203125 37.03546875 -26.08203125 36.35546875 C-25.71078125 37.11859375 -25.33953125 37.88171875 -24.95703125 38.66796875 C-22.56091432 42.10240302 -21.0606142 43.00559239 -17.08203125 44.35546875 C-12.13742456 44.88550735 -7.6880869 44.90152767 -2.95703125 43.29296875 C-0.79771603 41.35387904 -0.79771603 41.35387904 -0.01953125 37.91796875 C0.2495711 34.43017854 0.2495711 34.43017854 -1.49609375 32.3203125 C-5.18473084 29.51761695 -9.09371429 28.57684659 -13.51953125 27.35546875 C-25.82663557 23.94359825 -25.82663557 23.94359825 -29.45703125 18.16796875 C-30.72641137 12.45575822 -30.07682636 7.93543745 -26.95703125 2.98046875 C-19.09429641 -4.19855002 -9.32874767 -4.57356302 0 0 Z " fill="#107B76" transform="translate(1290.08203125,294.64453125)"/>
<path d="M0 0 C7.74494681 4.25212766 7.74494681 4.25212766 9 8.5 C9.061875 9.2425 9.12375 9.985 9.1875 10.75 C7.5375 11.41 5.8875 12.07 4.1875 12.75 C3.630625 11.96625 3.07375 11.1825 2.5 10.375 C-0.37995145 7.10586592 -2.41695263 6.02266393 -6.734375 5.53125 C-11.26041473 5.32706776 -14.13953695 5.85615032 -17.8125 8.75 C-19.267776 11.66055201 -19.26317148 13.53091798 -18.8125 16.75 C-13.71145838 20.93157487 -8.31175409 22.20999706 -2.00195312 23.72851562 C2.99816803 25.05089851 5.79054113 26.63583293 9.1875 30.75 C11.17459286 34.72418573 10.71850065 39.42875337 10.1875 43.75 C8.49423229 47.54656438 5.67624013 49.44453742 2.1875 51.625 C-4.438681 54.04638343 -12.87698399 54.04357367 -19.3125 51.125 C-22.99399965 48.95665911 -25.31592529 46.18279023 -27.8125 42.75 C-27 40.8125 -27 40.8125 -25.8125 38.75 C-24.3275 38.255 -24.3275 38.255 -22.8125 37.75 C-21.640625 39.24739583 -20.46875 40.74479167 -19.296875 42.2421875 C-16.06968195 45.52033623 -12.93638097 46.06199046 -8.4375 46.125 C-4.97654284 46.04623658 -2.17847341 45.88549356 0.875 44.1875 C3.48076607 41.86476217 3.48076607 41.86476217 3.9375 38.25 C3.53598121 34.59057307 3.53598121 34.59057307 0.63671875 32.6796875 C-3.13151526 30.57152487 -6.61140941 29.47735764 -10.75 28.375 C-21.28368944 25.24300543 -21.28368944 25.24300543 -24.796875 21.68359375 C-27.11630866 17.26774889 -26.7351807 12.52045552 -25.8125 7.75 C-24.06719048 3.84020181 -21.28579773 2.02841043 -17.625 -0.125 C-11.6981851 -1.8738962 -5.84319988 -2.3169115 0 0 Z " fill="#107B76" transform="translate(534.8125,293.25)"/>
<path d="M0 0 C0 4.62 0 9.24 0 14 C4.95 14 9.9 14 15 14 C15 15.98 15 17.96 15 20 C10.05 20 5.1 20 0 20 C0.11808403 25.23290697 0.24232036 30.46561751 0.37231445 35.69824219 C0.4156833 37.47912603 0.45735694 39.26005198 0.49731445 41.04101562 C0.5549699 43.59778548 0.6186777 46.15434298 0.68359375 48.7109375 C0.70030624 49.50994476 0.71701874 50.30895203 0.73423767 51.13217163 C0.75392991 55.19806368 0.75392991 55.19806368 2 59 C5.01490557 60.00496852 7.04181692 60.10335303 10.1875 60.0625 C11.08855469 60.05347656 11.98960938 60.04445313 12.91796875 60.03515625 C13.60503906 60.02355469 14.29210938 60.01195312 15 60 C15 61.98 15 63.96 15 66 C8.55678496 67.1250058 2.79859621 67.51641778 -3 64 C-6.58942661 59.49996205 -6.39570067 55.46922633 -6.29296875 49.98046875 C-6.28872391 49.12189774 -6.28447906 48.26332672 -6.28010559 47.3787384 C-6.26336995 44.64800086 -6.22572766 41.91801288 -6.1875 39.1875 C-6.17244653 37.3313909 -6.15875928 35.47527018 -6.14648438 33.61914062 C-6.11348323 29.07914015 -6.06173659 24.53969698 -6 20 C-9.96 20 -13.92 20 -18 20 C-18 18.02 -18 16.04 -18 14 C-14.04 14 -10.08 14 -6 14 C-6 9.71 -6 5.42 -6 1 C-3 0 -3 0 0 0 Z " fill="#107B76" transform="translate(1181,279)"/>
<path d="M0 0 C0 1.98 0 3.96 0 6 C-1.6037331 6.64690922 -3.20800306 7.29248764 -4.8125 7.9375 C-5.70582031 8.29714844 -6.59914063 8.65679687 -7.51953125 9.02734375 C-9.3270909 9.73613486 -11.15807409 10.3860247 -13 11 C-16.90122501 19.29357811 -16.55413132 28.08458107 -16.6875 37.0625 C-16.7207303 38.611356 -16.75522508 40.16018542 -16.79101562 41.70898438 C-16.87526307 45.47250806 -16.94237605 49.2359784 -17 53 C-18.98 53 -20.96 53 -23 53 C-23 35.84 -23 18.68 -23 1 C-21.02 1 -19.04 1 -17 1 C-16.67 2.98 -16.34 4.96 -16 7 C-15.195625 6.21625 -14.39125 5.4325 -13.5625 4.625 C-9.77971725 1.43044902 -4.97100912 0 0 0 Z " fill="#107B76" transform="translate(666,292)"/>
<path d="M0 0 C0 1.98 0 3.96 0 6 C-0.74765625 6.23074219 -1.4953125 6.46148437 -2.265625 6.69921875 C-9.89177716 9.1016571 -9.89177716 9.1016571 -15 15 C-16.22318866 18.66956597 -16.23116124 22.12321003 -16.31640625 25.94921875 C-16.33718735 26.72183548 -16.35796844 27.49445221 -16.37937927 28.29048157 C-16.44471038 30.7560648 -16.50368315 33.22175361 -16.5625 35.6875 C-16.60570087 37.36003691 -16.64931566 39.03256319 -16.69335938 40.70507812 C-16.8003749 44.8032775 -16.90168857 48.90158296 -17 53 C-18.98 53 -20.96 53 -23 53 C-23 35.84 -23 18.68 -23 1 C-21.02 1 -19.04 1 -17 1 C-16.67 2.65 -16.34 4.3 -16 6 C-15.360625 5.38125 -14.72125 4.7625 -14.0625 4.125 C-9.85048249 1.2023756 -5.14495439 0 0 0 Z " fill="#107B76" transform="translate(1436,292)"/>
<path d="M0 0 C0.76441406 0.06703125 1.52882813 0.1340625 2.31640625 0.203125 C4.96065606 0.8848837 5.89330183 1.49161018 7.4375 3.75 C7.87109375 6.5625 7.87109375 6.5625 7.875 9.75 C7.90400391 11.3278125 7.90400391 11.3278125 7.93359375 12.9375 C7.4375 15.75 7.4375 15.75 5.75390625 17.6015625 C2.96945379 18.98204989 1.03775416 19.15055155 -2.0625 19.125 C-3.47015625 19.13660156 -3.47015625 19.13660156 -4.90625 19.1484375 C-8.06188011 18.67509298 -9.41224778 18.11477854 -11.5625 15.75 C-12.05859375 12.9375 -12.05859375 12.9375 -12 9.75 C-11.99871094 8.698125 -11.99742188 7.64625 -11.99609375 6.5625 C-11.5625 3.75 -11.5625 3.75 -10.28515625 1.9375 C-6.94940134 -0.36197731 -3.9439121 -0.40039717 0 0 Z " fill="#107B76" transform="translate(1091.5625,107.25)"/>
<path d="M0 0 C1.98 0 3.96 0 6 0 C6 17.16 6 34.32 6 52 C4.02 52 2.04 52 0 52 C0 34.84 0 17.68 0 0 Z " fill="#107B76" transform="translate(1445,293)"/>
<path d="M0 0 C1.98 0 3.96 0 6 0 C6 17.16 6 34.32 6 52 C4.02 52 2.04 52 0 52 C0 34.84 0 17.68 0 0 Z " fill="#107B76" transform="translate(622,293)"/>
<path d="M0 0 C1.98 0 3.96 0 6 0 C6 17.16 6 34.32 6 52 C4.02 52 2.04 52 0 52 C0 34.84 0 17.68 0 0 Z " fill="#107B76" transform="translate(432,293)"/>
<path d="M0 0 C2.5 0.25 2.5 0.25 4.5 2.25 C4.75 4.75 4.75 4.75 4.5 7.25 C2.5 9.25 2.5 9.25 0 9.5 C-2.5 9.25 -2.5 9.25 -4.5 7.25 C-4.75 4.75 -4.75 4.75 -4.5 2.25 C-2.5 0.25 -2.5 0.25 0 0 Z " fill="#107B76" transform="translate(625.5,272.75)"/>
<path d="M0 0 C3.0625 -0.25 3.0625 -0.25 6 0 C7 1 7 1 7.1875 3.9375 C7 7 7 7 5 9 C1.875 8.625 1.875 8.625 -1 8 C-1.625 5.6875 -1.625 5.6875 -2 3 C-1.34 2.01 -0.68 1.02 0 0 Z " fill="#107B76" transform="translate(1445,273)"/>
<path d="M0 0 C1.010625 0.0825 2.02125 0.165 3.0625 0.25 C5.0625 3.25 5.0625 3.25 4.6875 5.9375 C4.48125 6.700625 4.275 7.46375 4.0625 8.25 C1.1875 8.875 1.1875 8.875 -1.9375 9.25 C-3.9375 7.25 -3.9375 7.25 -4.125 4.1875 C-3.87878357 0.33010924 -3.87878357 0.33010924 0 0 Z " fill="#107B76" transform="translate(434.9375,272.75)"/>
</svg>
